<?xml version="1.0" encoding="UTF-8"?>
<svg version="1.1" xmlns="http://www.w3.org/2000/svg" width="580" height="430">
<path d="M0 0 C1.1293396 -0.00511093 2.2586792 -0.01022186 3.42224121 -0.01548767 C7.14426008 -0.0293537 10.86609318 -0.02842921 14.58813477 -0.02612305 C17.18213469 -0.0300114 19.77613398 -0.03434635 22.37013245 -0.03910828 C27.80293107 -0.04656391 33.23565805 -0.04642265 38.66845703 -0.04101562 C44.93341417 -0.03497595 51.19814673 -0.04729191 57.46306556 -0.06858569 C63.5088363 -0.08837305 69.55448999 -0.09136994 75.60029793 -0.08785057 C78.16428212 -0.08836331 80.72826995 -0.09359208 83.29223442 -0.10366249 C86.8798939 -0.11602542 90.46703604 -0.1092356 94.0546875 -0.09765625 C95.63610283 -0.10912186 95.63610283 -0.10912186 97.24946594 -0.12081909 C104.81844921 -0.06693783 111.57298254 0.93242941 117.46704102 6.1496582 C118.02133789 6.62145508 118.57563477 7.09325195 119.14672852 7.5793457 C122.11960706 11.06645188 122.84272232 14.7533824 122.80995178 19.23695374 C122.80810883 20.21094116 122.80626587 21.18492859 122.80436707 22.18843079 C122.78639824 23.77424202 122.78639824 23.77424202 122.76806641 25.39208984 C122.7636554 26.51471222 122.75924438 27.63733459 122.75469971 28.79397583 C122.74485793 31.23081861 122.73100135 33.66764773 122.7136097 36.10444832 C122.67701742 41.9659107 122.68361008 47.82729409 122.68404853 53.68884933 C122.68311537 62.67822216 122.66451399 71.66712532 122.59570312 80.65625 C122.54443428 87.37973087 122.54080298 94.10182971 122.56384087 100.8255291 C122.56440787 103.38066855 122.54882332 105.93586701 122.51640511 108.49080086 C121.86838353 126.44041552 121.86838353 126.44041552 130.56175232 141.29148865 C131.23174759 141.9459346 131.90174286 142.60038055 132.59204102 143.2746582 C132.92204102 144.2646582 133.25204102 145.2546582 133.59204102 146.2746582 C134.58204102 146.6046582 135.57204102 146.9346582 136.59204102 147.2746582 C137.95032072 148.92105785 139.28458352 150.58761628 140.59204102 152.2746582 C141.25204102 152.6046582 141.91204102 152.9346582 142.59204102 153.2746582 C142.59204102 153.9346582 142.59204102 154.5946582 142.59204102 155.2746582 C143.42735352 155.6768457 143.42735352 155.6768457 144.27954102 156.0871582 C146.80429436 157.38365316 149.22918586 158.69942143 151.59204102 160.2746582 C151.59204102 160.9346582 151.59204102 161.5946582 151.59204102 162.2746582 C152.49954102 162.4190332 153.40704102 162.5634082 154.34204102 162.7121582 C157.59204102 163.2746582 157.59204102 163.2746582 159.39527893 163.81298828 C162.31385403 164.4263539 165.00898102 164.31367271 167.99023438 164.22387695 C169.28936264 164.18633301 170.58849091 164.14878906 171.92698669 164.11010742 C173.34532381 164.06188903 174.76362297 164.01254331 176.18188477 163.9621582 C177.26081592 163.92424164 177.26081592 163.92424164 178.36154366 163.88555908 C182.17642364 163.74929355 185.99085698 163.60399146 189.80517578 163.45288086 C192.9383308 163.33056914 196.07124146 163.2266193 199.20556641 163.1394043 C203.01122801 163.0334504 206.8144642 162.89494546 210.61819649 162.73428345 C212.05563879 162.678705 213.49354638 162.63390823 214.93168449 162.60092163 C224.22453871 162.37635706 230.84893857 160.81488326 238.81495667 155.95288086 C241.36188219 154.41374572 243.80300348 153.29162867 246.59204102 152.2746582 C246.59204102 151.6146582 246.59204102 150.9546582 246.59204102 150.2746582 C248.16625977 148.7590332 248.16625977 148.7590332 250.27954102 147.0246582 C252.94553235 144.77390092 255.30214193 142.57416275 257.46704102 139.8371582 C258.16829102 138.9915332 258.86954102 138.1459082 259.59204102 137.2746582 C260.25204102 137.2746582 260.91204102 137.2746582 261.59204102 137.2746582 C261.9980957 136.18024414 261.9980957 136.18024414 262.41235352 135.0637207 C263.89516041 131.55801168 265.8853634 128.54196993 267.95922852 125.3605957 C273.37945623 115.11662466 274.14371216 106.26439022 274.04733086 94.89319229 C274.02521777 92.16859174 274.0292316 89.4450871 274.03981018 86.72042847 C274.06134123 79.96434185 274.04405483 73.2085101 274.01831055 66.45245361 C273.99690918 60.71867106 273.99493898 54.98559772 274.02122688 49.25182724 C274.02557073 46.57197502 274.00097488 43.89336522 273.97569275 41.21365356 C273.9809627 39.57138516 273.98768461 37.92912056 273.99609375 36.28686523 C273.98118393 35.54601181 273.96627411 34.80515839 273.95091248 34.04185486 C274.00551824 30.08232983 274.45702273 28.43911868 277.00428772 25.33639526 C282.83443054 20.69135374 289.37125293 22.08645925 296.44061279 22.86532593 C299.36407107 23.20515163 302.28510826 23.56209157 305.20532227 23.92871094 C307.48190732 24.21402131 309.75948301 24.49005299 312.03735352 24.76489258 C325.89997729 26.46764642 325.89997729 26.46764642 328.7481842 29.78892517 C331.04332001 34.12778198 331.15180381 37.22583452 331.09375 42.04638672 C331.09915298 42.90729919 331.10455597 43.76821167 331.11012268 44.6552124 C331.12258491 47.48835088 331.10613713 50.32046826 331.08813477 53.15356445 C331.0882898 55.12841342 331.08977947 57.1032627 331.09254456 59.07810974 C331.09392738 63.21139013 331.08138877 67.34432302 331.05859375 71.47753906 C331.03019098 76.77266965 331.03295312 82.06722383 331.04568386 87.36239719 C331.05264158 91.4382163 331.04485097 95.51390239 331.03242683 99.58970451 C331.02791456 101.54211861 331.02757357 103.49454698 331.03149223 105.44696236 C331.03440582 108.17571375 331.0178911 110.90367299 330.99609375 113.63232422 C331.0005954 114.4371373 331.00509705 115.24195038 331.00973511 116.07115173 C330.94908919 120.64540193 330.42759037 123.63316538 327.59204102 127.2746582 C324.42828877 129.48323447 321.17407453 129.73649777 317.39282227 130.16918945 C316.18303711 130.3206543 314.97325195 130.47211914 313.72680664 130.62817383 C311.19925349 130.93168685 308.67059099 131.22611365 306.14086914 131.51098633 C299.3434171 132.37912938 294.03923717 133.49333382 288.25292969 137.2578125 C286.59204102 138.2746582 286.59204102 138.2746582 284.59204102 138.2746582 C284.59204102 138.9346582 284.59204102 139.5946582 284.59204102 140.2746582 C282.91235352 142.0012207 282.91235352 142.0012207 280.71704102 143.8996582 C279.99774414 144.53129883 279.27844727 145.16293945 278.53735352 145.8137207 C276.59204102 147.2746582 276.59204102 147.2746582 274.59204102 147.2746582 C274.26204102 148.2646582 273.93204102 149.2546582 273.59204102 150.2746582 C272.93204102 150.2746582 272.27204102 150.2746582 271.59204102 150.2746582 C271.26204102 151.2646582 270.93204102 152.2546582 270.59204102 153.2746582 C269.93204102 153.2746582 269.27204102 153.2746582 268.59204102 153.2746582 C268.32649414 153.85473633 268.06094727 154.43481445 267.78735352 155.0324707 C266.5518862 157.34998128 265.15021238 159.13768127 263.46704102 161.1496582 C249.43349076 179.13104497 241.19757277 201.9746422 233.59204102 223.2746582 C232.47685377 226.27836195 231.34694805 229.27646611 230.21704102 232.2746582 C229.70897312 233.62872907 229.2011351 234.98288622 228.69360352 236.3371582 C228.33008789 237.3065332 227.96657227 238.2759082 227.59204102 239.2746582 C226.93204102 239.2746582 226.27204102 239.2746582 225.59204102 239.2746582 C225.34454102 239.8315332 225.09704102 240.3884082 224.84204102 240.9621582 C218.59167102 252.5253427 206.44292654 256.20839096 194.90454102 260.7121582 C188.49969032 263.23002182 182.16268021 265.87527308 175.86547852 268.6496582 C175.19858505 268.94268326 174.53169159 269.23570831 173.84458923 269.53761292 C170.51143467 271.00356869 167.18318554 272.47944035 163.86083984 273.96972656 C162.6190385 274.51830662 161.37710099 275.06657857 160.13500977 275.61450195 C159.04212646 276.10297607 157.94924316 276.5914502 156.82324219 277.09472656 C152.21485718 278.77756183 148.23135729 279.62823622 143.40454102 278.5871582 C138.84589096 276.45978818 137.12398672 274.31955155 134.84204102 269.8371582 C131.57508878 260.25762182 133.76402858 248.79435499 134.90454102 238.9621582 C135.03844238 237.76171875 135.17234375 236.5612793 135.31030273 235.32446289 C136.52911057 224.518743 137.8589421 213.72636583 139.25073242 202.94165039 C139.36336426 202.06154297 139.47599609 201.18143555 139.59204102 200.2746582 C139.93082275 199.02765137 140.26960449 197.78064453 140.61865234 196.49584961 C140.95320007 193.70852295 140.79493648 192.59652431 139.28143311 190.19555664 C137.22613566 187.8981809 135.06810084 185.79222568 132.81469727 183.6887207 C131.61398842 182.51422867 131.61398842 182.51422867 130.38902283 181.31600952 C127.83124868 178.82179388 125.24463321 176.3602578 122.65454102 173.8996582 C120.07435975 171.41180613 117.5004858 168.91769623 114.93077087 166.41903687 C113.33007392 164.86662462 111.72210403 163.32167147 110.10646057 161.78482056 C109.02049843 160.74265884 109.02049843 160.74265884 107.91259766 159.67944336 C107.27004532 159.06847809 106.62749298 158.45751282 105.96546936 157.82803345 C104.59204102 156.2746582 104.59204102 156.2746582 104.59204102 154.2746582 C103.63297852 153.8105957 103.63297852 153.8105957 102.65454102 153.3371582 C100.59204102 152.2746582 100.59204102 152.2746582 99.59204102 151.2746582 C98.18838311 151.16710671 96.77941483 151.12785822 95.37168884 151.11643982 C94.46158554 151.106651 93.55148224 151.09686218 92.61380005 151.08677673 C91.60751556 151.08102127 90.60123108 151.07526581 89.56445312 151.06933594 C88.51092148 151.05943634 87.45738983 151.04953674 86.37193298 151.03933716 C82.87110685 151.00761525 79.37026712 150.98292264 75.86938477 150.95825195 C73.44942359 150.93769165 71.02946608 150.91669543 68.60951233 150.89527893 C62.2259314 150.83996286 55.84231756 150.79059577 49.4586792 150.74243164 C42.9503688 150.69228606 36.44210647 150.63656384 29.93383789 150.58129883 C17.15328023 150.4736007 4.37268159 150.37199258 -8.40795898 150.2746582 C-8.73795898 151.2646582 -9.06795898 152.2546582 -9.40795898 153.2746582 C-11.06584684 154.6188916 -12.73372216 155.95084304 -14.40795898 157.2746582 C-15.76623869 158.92105785 -17.10050149 160.58761628 -18.40795898 162.2746582 C-20.53295898 164.5871582 -20.53295898 164.5871582 -22.40795898 166.2746582 C-23.06795898 166.2746582 -23.72795898 166.2746582 -24.40795898 166.2746582 C-24.73795898 167.2646582 -25.06795898 168.2546582 -25.40795898 169.2746582 C-26.06795898 169.2746582 -26.72795898 169.2746582 -27.40795898 169.2746582 C-27.40795898 169.9346582 -27.40795898 170.5946582 -27.40795898 171.2746582 C-28.06795898 171.2746582 -28.72795898 171.2746582 -29.40795898 171.2746582 C-30.06795898 172.5946582 -30.72795898 173.9146582 -31.40795898 175.2746582 C-32.06795898 175.2746582 -32.72795898 175.2746582 -33.40795898 175.2746582 C-33.73795898 176.2646582 -34.06795898 177.2546582 -34.40795898 178.2746582 C-35.06795898 178.2746582 -35.72795898 178.2746582 -36.40795898 178.2746582 C-36.65545898 178.8934082 -36.90295898 179.5121582 -37.15795898 180.1496582 C-38.63566661 182.66176116 -39.84751075 183.03573164 -42.40795898 184.2746582 C-42.73795898 185.2646582 -43.06795898 186.2546582 -43.40795898 187.2746582 C-44.06795898 187.2746582 -44.72795898 187.2746582 -45.40795898 187.2746582 C-45.65545898 187.8934082 -45.90295898 188.5121582 -46.15795898 189.1496582 C-47.62843077 191.64946023 -48.82198975 192.10781843 -51.40795898 193.2746582 C-51.30773437 194.03045166 -51.20750977 194.78624512 -51.10424805 195.56494141 C-50.04540403 203.581303 -49.01336186 211.60073374 -47.9987793 219.62280273 C-47.60303538 222.74957559 -47.20074595 225.87541133 -46.79370117 229.00073242 C-46.2851528 232.91465591 -45.79468949 236.83051023 -45.31555176 240.74813843 C-45.12907569 242.25035821 -44.93689233 243.75188197 -44.73864746 245.25259399 C-43.42377181 255.24696436 -42.60300052 264.45696656 -47.09545898 273.7746582 C-49.8861263 276.79159584 -52.35449838 278.61221382 -56.40795898 279.2746582 C-63.45409022 278.64174955 -69.81404713 276.12538158 -76.22045898 273.2824707 C-77.11482666 272.89525848 -78.00919434 272.50804626 -78.93066406 272.10910034 C-81.76051551 270.88176742 -84.58432738 269.6412242 -87.40795898 268.3996582 C-90.23280836 267.16820194 -93.05884596 265.93951374 -95.88525391 264.7116394 C-97.63399779 263.95078774 -99.38164245 263.18740225 -101.12792969 262.42092896 C-106.10134521 260.24391266 -111.10401174 258.17006478 -116.15649414 256.18307495 C-127.58954767 251.57008828 -134.72890924 245.40458159 -140.40795898 234.2746582 C-142.69622317 228.86301557 -144.58967711 223.30275419 -146.52416992 217.75756836 C-147.94284529 213.77195275 -149.48491465 209.83646243 -151.03295898 205.8996582 C-151.61780498 204.40885538 -152.20244584 202.91797206 -152.78686523 201.42700195 C-153.06288574 200.7230127 -153.33890625 200.01902344 -153.62329102 199.29370117 C-154.76374859 196.35916971 -155.86306977 193.40929946 -156.97045898 190.4621582 C-159.48122211 183.92095953 -162.3865665 177.59363695 -165.40795898 171.2746582 C-165.96676758 170.07776367 -165.96676758 170.07776367 -166.53686523 168.85668945 C-168.43220949 164.89504832 -170.62400471 161.65517411 -173.40795898 158.2746582 C-173.40795898 157.6146582 -173.40795898 156.9546582 -173.40795898 156.2746582 C-174.06795898 156.2746582 -174.72795898 156.2746582 -175.40795898 156.2746582 C-176.78295898 154.84106445 -176.78295898 154.84106445 -178.40795898 152.8371582 C-189.6103018 139.73296837 -199.89046281 132.81294432 -217.15795898 131.2121582 C-219.71718355 130.97006939 -222.27469836 130.70899361 -224.82983398 130.42700195 C-225.94970703 130.32379639 -227.06958008 130.22059082 -228.22338867 130.11425781 C-232.15797283 129.07691996 -234.91978652 127.47873216 -237.40795898 124.2746582 C-238.26626723 121.25689752 -238.19895743 118.35431136 -238.13671875 115.23339844 C-238.14241379 114.33201141 -238.14810883 113.43062439 -238.15397644 112.50192261 C-238.16507331 109.52823088 -238.13303525 106.55674754 -238.09936523 103.58325195 C-238.09578795 101.51490029 -238.09443075 99.4465437 -238.09519958 97.37818909 C-238.09050976 93.04624866 -238.06567872 88.71505369 -238.02539062 84.38330078 C-237.97438857 78.8290653 -237.96294874 73.27564794 -237.96522617 67.72120571 C-237.96441069 63.45152468 -237.94796163 59.1820227 -237.92622185 54.9124012 C-237.91667239 52.86427223 -237.91076209 50.81612297 -237.90854073 48.76797295 C-237.90204002 45.90713766 -237.87578903 43.04717199 -237.84375 40.18652344 C-237.84510956 39.33914108 -237.84646912 38.49175873 -237.84786987 37.61869812 C-237.79235105 34.23076058 -237.67634773 31.75033081 -235.99241638 28.76585388 C-234.14590338 27.02802728 -233.04595093 26.58167809 -230.56420898 26.1262207 C-229.76756836 25.97958984 -228.97092773 25.83295898 -228.15014648 25.68188477 C-222.74827115 24.87968319 -217.3372892 24.23499853 -211.90795898 23.6496582 C-210.15032227 23.44856445 -210.15032227 23.44856445 -208.35717773 23.2434082 C-191.4112938 21.37955116 -191.4112938 21.37955116 -186.47045898 23.5871582 C-184.133343 25.49934401 -182.59701094 27.13993156 -182.08811951 30.19439697 C-182.05630081 30.92374451 -182.02448212 31.65309204 -181.99169922 32.40454102 C-181.95262955 33.24402283 -181.91355988 34.08350464 -181.87330627 34.94842529 C-181.84220261 35.8656134 -181.81109894 36.78280151 -181.77905273 37.7277832 C-181.74089951 38.69508362 -181.70274628 39.66238403 -181.66343689 40.65899658 C-181.18691128 54.31926216 -181.37809032 67.99220721 -181.50390625 81.6574707 C-181.53419783 85.19132973 -181.55188039 88.72508557 -181.56811523 92.2590332 C-181.58157486 93.31958923 -181.59503448 94.38014526 -181.60890198 95.47283936 C-181.66189626 111.30415217 -176.91990759 126.26100265 -166.40795898 138.2746582 C-166.40795898 138.9346582 -166.40795898 139.5946582 -166.40795898 140.2746582 C-165.41795898 140.6046582 -164.42795898 140.9346582 -163.40795898 141.2746582 C-162.62420898 142.2646582 -161.84045898 143.2546582 -161.03295898 144.2746582 C-156.5180703 149.7353091 -150.47557331 153.69871606 -144.40795898 157.2746582 C-143.82288574 157.64324951 -143.2378125 158.01184082 -142.63500977 158.39160156 C-134.77014395 162.65616237 -125.62802018 162.16887173 -116.90795898 162.4621582 C-115.15635896 162.53194697 -113.40481211 162.60308284 -111.65332031 162.67553711 C-109.03111833 162.78271642 -106.40895249 162.88747212 -103.78633118 162.98388672 C-98.73010636 163.1698517 -93.68723324 163.42391456 -88.63842773 163.75512695 C-87.51436523 163.82256104 -86.39030273 163.88999512 -85.23217773 163.95947266 C-83.21943725 164.08150915 -81.20749586 164.21809539 -79.19702148 164.37304688 C-70.28970361 164.84484636 -63.13475659 161.97068206 -55.97045898 156.7121582 C-55.16737305 156.13336914 -54.36428711 155.55458008 -53.53686523 154.95825195 C-51.41058196 153.35291268 -51.41058196 153.35291268 -49.74780273 151.55981445 C-48.40795898 150.2746582 -48.40795898 150.2746582 -46.40795898 150.2746582 C-46.15143555 149.68942383 -45.89491211 149.10418945 -45.63061523 148.5012207 C-44.30233736 146.08231212 -42.84271097 144.54266948 -40.84545898 142.6496582 C-38.26780509 140.22943862 -38.26780509 140.22943862 -36.40795898 137.2746582 C-35.74795898 137.2746582 -35.08795898 137.2746582 -34.40795898 137.2746582 C-34.13983398 136.6971582 -33.87170898 136.1196582 -33.59545898 135.5246582 C-32.40795898 133.2746582 -32.40795898 133.2746582 -30.85697842 131.42843151 C-29.15123297 128.89306937 -29.03397877 127.59054947 -29.03614807 124.56428528 C-29.02939056 123.62099365 -29.02263306 122.67770203 -29.01567078 121.70582581 C-29.02339005 120.67771286 -29.03110931 119.64959991 -29.0390625 118.59033203 C-29.03529602 117.50205109 -29.03152954 116.41377014 -29.02764893 115.29251099 C-29.02121132 112.92824477 -29.02155127 110.56395268 -29.02783394 108.19968605 C-29.03693257 104.45396751 -29.02673248 100.70875083 -29.01121521 96.96305847 C-28.97614957 87.65604439 -28.96878375 78.34906196 -28.97131348 69.04199219 C-28.97317821 61.18433465 -28.95922975 53.3269605 -28.9228344 45.46936607 C-28.91202517 41.78618734 -28.92413302 38.10352639 -28.93666077 34.42036438 C-28.92775256 32.14889011 -28.91767686 29.87742002 -28.90625 27.60595703 C-28.9159935 26.58796524 -28.925737 25.56997345 -28.93577576 24.52113342 C-28.86568906 17.51496939 -27.71089261 11.18650705 -23.06688786 5.68635273 C-16.44385656 -0.38649099 -8.42896699 -0.01976905 0 0 Z " fill="#03A5A7" transform="translate(237.407958984375,141.725341796875)"/>
<path d="M0 0 C1.6940094 -0.0076664 1.6940094 -0.0076664 3.42224121 -0.01548767 C7.14426008 -0.0293537 10.86609318 -0.02842921 14.58813477 -0.02612305 C17.18213469 -0.0300114 19.77613398 -0.03434635 22.37013245 -0.03910828 C27.80293107 -0.04656391 33.23565805 -0.04642265 38.66845703 -0.04101562 C44.93341417 -0.03497595 51.19814673 -0.04729191 57.46306556 -0.06858569 C63.5088363 -0.08837305 69.55448999 -0.09136994 75.60029793 -0.08785057 C78.16428212 -0.08836331 80.72826995 -0.09359208 83.29223442 -0.10366249 C86.8798939 -0.11602542 90.46703604 -0.1092356 94.0546875 -0.09765625 C95.63610283 -0.10912186 95.63610283 -0.10912186 97.24946594 -0.12081909 C104.81844921 -0.06693783 111.57298254 0.93242941 117.46704102 6.1496582 C118.02133789 6.62145508 118.57563477 7.09325195 119.14672852 7.5793457 C122.15441788 11.10728404 122.8418107 14.86330633 122.87051392 19.39363098 C122.8816774 20.40178864 122.89284088 21.40994629 122.90434265 22.44865417 C122.90650284 23.54341568 122.90866302 24.63817719 122.91088867 25.76611328 C122.92595711 27.50822083 122.92595711 27.50822083 122.94132996 29.28552246 C122.97220377 33.12173979 122.98920906 36.95788719 123.00610352 40.79418945 C123.02481178 43.45506307 123.04428855 46.11591993 123.06478882 48.77677917 C123.11153369 55.06291295 123.1482985 61.34906372 123.18146169 67.63528222 C123.21971347 74.79372148 123.26911559 81.95207028 123.31944585 89.11043322 C123.42270181 103.83177158 123.51198278 118.55317497 123.59204102 133.2746582 C122.93204102 132.9446582 122.27204102 132.6146582 121.59204102 132.2746582 C121.59204102 109.1746582 121.59204102 86.0746582 121.59204102 62.2746582 C92.2479961 66.05602107 92.2479961 66.05602107 63.05688477 70.82983398 C60.04097299 71.37410808 57.02013724 71.88545424 53.99829102 72.39575195 C39.10710717 74.91271232 24.28431843 77.64756902 9.49047852 80.68383789 C6.62007884 81.26894295 3.74738068 81.84079073 0.87329102 82.4074707 C-0.03026123 82.58592529 -0.93381348 82.76437988 -1.86474609 82.94824219 C-3.53199256 83.27706762 -5.19945351 83.60480855 -6.8671875 83.93115234 C-10.49701293 84.65116625 -14.0774312 85.43634592 -17.65405273 86.38793945 C-21.40795898 87.2746582 -21.40795898 87.2746582 -26.40795898 87.2746582 C-26.40795898 101.1346582 -26.40795898 114.9946582 -26.40795898 129.2746582 C-27.06795898 129.2746582 -27.72795898 129.2746582 -28.40795898 129.2746582 C-28.50158969 114.69679093 -28.57202963 100.1189637 -28.61520767 85.54085636 C-28.63579299 78.77127566 -28.66383574 72.0018823 -28.7097168 65.23242188 C-28.75399263 58.69666183 -28.77711288 52.16102311 -28.78746796 45.62512016 C-28.7948453 43.134505 -28.8092515 40.64390018 -28.83087921 38.153368 C-28.86001516 34.65849133 -28.86391057 31.16441263 -28.86206055 27.66943359 C-28.87644165 26.64515762 -28.89082275 25.62088165 -28.90563965 24.56556702 C-28.86548628 17.53210901 -27.73016388 11.20821054 -23.06671524 5.68660069 C-16.44482983 -0.38702072 -8.42831324 -0.01976751 0 0 Z " fill="#79BCBF" transform="translate(237.407958984375,141.725341796875)"/>
<path d="M0 0 C2.00408574 3.00612861 2.26819052 3.73584224 2.41625977 7.12988281 C2.45532944 7.96936462 2.49439911 8.80884644 2.53465271 9.67376709 C2.56575638 10.5909552 2.59686005 11.50814331 2.62890625 12.453125 C2.66705948 13.42042542 2.70521271 14.38772583 2.74452209 15.38433838 C3.2210477 29.04460396 3.02986867 42.71754901 2.90405273 56.3828125 C2.87376115 59.91667153 2.8560786 63.45042736 2.83984375 66.984375 C2.82638412 68.04493103 2.8129245 69.10548706 2.79905701 70.19818115 C2.74606272 86.02949397 7.48805139 100.98634445 18 113 C18 113.66 18 114.32 18 115 C19.485 115.495 19.485 115.495 21 116 C21 116.66 21 117.32 21 118 C19.515 118.495 19.515 118.495 18 119 C17.9071875 118.071875 17.9071875 118.071875 17.8125 117.125 C17.16577152 114.77495599 17.16577152 114.77495599 14.6875 113.625 C11.51942126 112.8882375 10.71662146 113.40749776 8 115 C7.01 114.505 7.01 114.505 6 114 C5.67 114.66 5.34 115.32 5 116 C2.4375 116.625 2.4375 116.625 0 117 C0.433125 117.47050781 0.86625 117.94101562 1.3125 118.42578125 C2.1478125 119.35970703 2.1478125 119.35970703 3 120.3125 C3.556875 120.92738281 4.11375 121.54226563 4.6875 122.17578125 C6 124 6 124 6 127 C5.39414062 126.35933594 4.78828125 125.71867188 4.1640625 125.05859375 C-4.03534547 116.59428183 -12.44232857 108.41497136 -24.5234375 107.10546875 C-25.791875 106.95400391 -27.0603125 106.80253906 -28.3671875 106.64648438 C-30.36963922 106.41394318 -32.3721619 106.18779938 -34.37695312 105.97631836 C-36.32374171 105.76749412 -38.26744084 105.53048533 -40.2109375 105.29296875 C-41.94802979 105.09997192 -41.94802979 105.09997192 -43.72021484 104.90307617 C-47.67856597 103.81315948 -50.4876145 102.23936893 -53 99 C-53.85787734 95.982099 -53.79099904 93.0796828 -53.72875977 89.95874023 C-53.7344548 89.05735321 -53.74014984 88.15596619 -53.74601746 87.2272644 C-53.75711432 84.25357268 -53.72507627 81.28208934 -53.69140625 78.30859375 C-53.68782897 76.24024209 -53.68647176 74.1718855 -53.6872406 72.10353088 C-53.68255077 67.77159046 -53.65771973 63.44039549 -53.61743164 59.10864258 C-53.56642959 53.5544071 -53.55498976 48.00098973 -53.55726719 42.44654751 C-53.5564517 38.17686647 -53.54000265 33.90736449 -53.51826286 29.637743 C-53.50871341 27.58961403 -53.5028031 25.54146477 -53.50058174 23.49331474 C-53.49408103 20.63247945 -53.46783005 17.77251378 -53.43579102 14.91186523 C-53.43715057 14.06448288 -53.43851013 13.21710052 -53.43991089 12.34403992 C-53.38439206 8.95610237 -53.26838875 6.47567261 -51.5844574 3.49119568 C-49.73794439 1.75336908 -48.63799194 1.30701989 -46.15625 0.8515625 C-45.35960937 0.70493164 -44.56296875 0.55830078 -43.7421875 0.40722656 C-38.34031216 -0.39497501 -32.92933022 -1.03965967 -27.5 -1.625 C-26.32824219 -1.7590625 -25.15648437 -1.893125 -23.94921875 -2.03125 C-5.02644158 -4.11254311 -5.02644158 -4.11254311 0 0 Z " fill="#7ABDBF" transform="translate(53,167)"/>
<path d="M0 0 C1.60294922 0.05994141 1.60294922 0.05994141 3.23828125 0.12109375 C9.32810578 0.39487687 15.13238695 1.09413043 21.109375 2.27294922 C25.42306092 3.05225231 29.75775532 3.35866381 34.125 3.6875 C36.12123459 3.85247114 38.11732194 4.01923093 40.11328125 4.1875 C41.17240723 4.27644531 42.2315332 4.36539063 43.32275391 4.45703125 C49.65627033 4.99843456 55.98519039 5.57795938 62.3125 6.1875 C63.55499512 6.29763428 64.79749023 6.40776855 66.07763672 6.52124023 C67.83551514 6.69441772 67.83551514 6.69441772 69.62890625 6.87109375 C70.6660376 6.9683374 71.70316895 7.06558105 72.77172852 7.16577148 C76.14809501 7.82809176 78.7493095 9.09333672 81.75 10.75 C81.75 11.41 81.75 12.07 81.75 12.75 C82.348125 12.976875 82.94625 13.20375 83.5625 13.4375 C86.81635395 15.38981237 88.24371869 18.06339773 89.3236742 21.66111183 C89.7534375 23.7668429 89.87849158 25.65033578 89.88371277 27.79721069 C89.89011024 28.99146919 89.89011024 28.99146919 89.89663696 30.20985413 C89.89595718 31.50662331 89.89595718 31.50662331 89.89526367 32.82958984 C89.89862228 33.7471254 89.9019809 34.66466095 89.90544128 35.61000061 C89.91494141 38.64366001 89.91689393 41.67726415 89.91796875 44.7109375 C89.92118197 46.8207705 89.92454609 48.93060327 89.92805481 51.04043579 C89.93404372 55.46381141 89.93589495 59.88716749 89.93530273 64.31054688 C89.93520112 69.97544117 89.94885333 75.6402101 89.96607494 81.30507469 C89.97719951 85.6631223 89.9792218 90.02113963 89.97869301 94.37919998 C89.97987243 96.4675604 89.9842921 98.55592161 89.99202538 100.64426804 C90.00183438 103.5668081 89.99894355 106.48907655 89.99291992 109.41162109 C89.99853943 110.27208542 90.00415894 111.13254974 90.00994873 112.01908875 C89.9783171 118.06574256 89.17633026 122.61050461 85.75 127.75 C85.09 127.75 84.43 127.75 83.75 127.75 C83.54375 128.348125 83.3375 128.94625 83.125 129.5625 C81.19033282 132.64037961 79.07081919 133.32623757 75.75 134.75 C72.4453125 135.4453125 72.4453125 135.4453125 68.875 135.875 C67.90868652 135.99391602 67.90868652 135.99391602 66.92285156 136.11523438 C61.44469027 136.75474959 55.95769281 137.07113961 50.45166016 137.35595703 C46.63990595 137.57108413 42.98954933 137.98865463 39.25 138.75 C34.20162636 139.7747445 29.21646015 140.09415592 24.07641602 140.35327148 C19.07475519 140.62152157 14.15268397 141.16361178 9.1875 141.8125 C-14.34806541 144.7298424 -14.34806541 144.7298424 -24.5625 137 C-29.46884211 130.45821052 -29.68597933 123.61964388 -29.63818359 115.76342773 C-29.64344055 114.69085724 -29.64869751 113.61828674 -29.65411377 112.51321411 C-29.66726065 108.98652355 -29.65859483 105.46028848 -29.6484375 101.93359375 C-29.6504596 99.47314874 -29.65337218 97.01270432 -29.65713501 94.55226135 C-29.66155105 89.40367916 -29.65514973 84.25525342 -29.64111328 79.10668945 C-29.62401307 72.5137434 -29.63387279 65.92116352 -29.65183067 59.32823086 C-29.66268012 54.25040435 -29.65921694 49.17266442 -29.6514473 44.09483528 C-29.64944898 41.66400166 -29.65189159 39.23316012 -29.65888596 36.80233574 C-29.66652027 33.40373837 -29.65486808 30.00573125 -29.63818359 26.60717773 C-29.64425629 25.60698105 -29.65032898 24.60678436 -29.65658569 23.57627869 C-29.60452181 17.8400786 -28.91207967 13.84909333 -26.25 8.75 C-25.92 8.09 -25.59 7.43 -25.25 6.75 C-24.59 6.75 -23.93 6.75 -23.25 6.75 C-22.92 5.76 -22.59 4.77 -22.25 3.75 C-21.26 3.75 -20.27 3.75 -19.25 3.75 C-19.25 3.09 -19.25 2.43 -19.25 1.75 C-12.77258498 -0.65589701 -6.83615586 -0.34952997 0 0 Z M-18.25 14.75 C-19.42497728 17.09995455 -19.38571327 18.51257799 -19.40390015 21.13288879 C-19.41250061 22.05396927 -19.42110107 22.97504974 -19.42996216 23.92404175 C-19.43422211 24.93757721 -19.43848206 25.95111267 -19.44287109 26.99536133 C-19.45104858 28.06051468 -19.45922607 29.12566803 -19.46765137 30.22309875 C-19.49253031 33.7594038 -19.50902696 37.29566868 -19.5234375 40.83203125 C-19.52876118 42.0375382 -19.53408485 43.24304516 -19.53956985 44.48508263 C-19.56631104 50.86447896 -19.58568373 57.24385565 -19.60009766 63.62329102 C-19.61675672 70.22119313 -19.66154301 76.81859684 -19.7124691 83.41631031 C-19.74607994 88.48203626 -19.75766834 93.54764296 -19.76332474 98.61347008 C-19.77005317 101.04599509 -19.78531617 103.47851182 -19.80921555 105.91092873 C-19.84073913 109.31318751 -19.84092257 112.71408936 -19.83349609 116.11645508 C-19.84990143 117.12391785 -19.86630676 118.13138062 -19.88320923 119.16937256 C-19.83571697 124.97853087 -19.83571697 124.97853087 -16.77603149 129.85209656 C-15.9424411 130.47840469 -15.10885071 131.10471283 -14.25 131.75 C-13.92 132.08 -13.59 132.41 -13.25 132.75 C-10.64981793 132.88047991 -8.0895725 132.93715024 -5.48828125 132.93359375 C-4.68707352 132.93258163 -3.88586578 132.93156952 -3.06037903 132.93052673 C5.65231029 132.84526221 14.2657728 132.02573906 22.9230957 131.09594727 C25.60474759 130.807963 28.28749326 130.53281955 30.97070312 130.25976562 C32.69538696 130.08144789 34.41999942 129.9024381 36.14453125 129.72265625 C36.93720901 129.64032242 37.72988678 129.55798859 38.54658508 129.47315979 C42.33133233 129.06525724 46.02404721 128.5190065 49.75 127.75 C51.38291922 127.5706363 53.01875389 127.41631648 54.65625 127.28515625 C55.56503906 127.20716797 56.47382813 127.12917969 57.41015625 127.04882812 C59.30306655 126.89130258 61.19630357 126.73765481 63.08984375 126.58789062 C70.81875904 125.97836559 70.81875904 125.97836559 77.5 122.3125 C80.60536142 118.43079823 79.89776182 113.63538902 79.89526367 108.93579102 C79.89862228 108.03469604 79.9019809 107.13360107 79.90544128 106.2052002 C79.91495351 103.22142159 79.91689448 100.23769908 79.91796875 97.25390625 C79.92118093 95.18269324 79.92454498 93.11148047 79.92805481 91.04026794 C79.93404661 86.69668044 79.93589464 82.35311283 79.93530273 78.00952148 C79.93520106 72.43968576 79.94885837 66.86997738 79.96607494 61.30017185 C79.97718461 57.02198193 79.97922227 52.74382291 79.97869301 48.46562004 C79.97987449 46.41189065 79.98430564 44.35816049 79.99202538 42.30444527 C80.00180517 39.43407348 79.99895524 36.56397962 79.99291992 33.69360352 C79.99853943 32.84307907 80.00415894 31.99255463 80.00994873 31.11625671 C79.98830907 27.07319897 79.7277194 24.26640005 77.75 20.75 C77.09 20.75 76.43 20.75 75.75 20.75 C75.75 20.09 75.75 19.43 75.75 18.75 C71.32196665 16.62419116 66.95138071 16.21301354 62.125 15.8125 C60.32797273 15.64879843 58.53110508 15.48333806 56.734375 15.31640625 C55.28901367 15.18322998 55.28901367 15.18322998 53.81445312 15.04736328 C48.32729374 14.51490948 42.85234975 13.87407082 37.375 13.25 C15.33007063 10.68418646 15.33007063 10.68418646 -6.8125 9.3125 C-8.51599609 9.25255859 -8.51599609 9.25255859 -10.25390625 9.19140625 C-14.23996736 9.93457019 -15.69982295 11.6833314 -18.25 14.75 Z " fill="#333333" transform="translate(411.25,143.25)"/>
<path d="M0 0 C7.40518773 -0.16753818 12.73136481 1.09240456 18.25666046 6.2461319 C23.93334463 12.50302214 24.54976992 19.92273395 24.48242188 28.01367188 C24.48943115 29.06366867 24.49644043 30.11366547 24.50366211 31.19548035 C24.52116727 34.64231355 24.50964535 38.0883157 24.49609375 41.53515625 C24.4987908 43.94454098 24.50267499 46.35392465 24.50769043 48.76330566 C24.51357538 53.80340985 24.50505449 58.84322974 24.48632812 63.88330078 C24.46353969 70.32927331 24.47666809 76.77457954 24.50061798 83.22052765 C24.5151028 88.19294209 24.51045756 93.16519974 24.50010681 98.13761902 C24.49744697 100.51376933 24.50068302 102.88993407 24.51002502 105.2660675 C24.52023445 108.59247306 24.50462684 111.91781393 24.48242188 115.24414062 C24.4905188 116.21687424 24.49861572 117.18960785 24.50695801 118.19181824 C24.41150886 125.94761507 22.56671117 131.97927727 17.58984375 138.00390625 C12.38802812 142.21489986 8.27154999 143.52950177 1.58984375 143.44140625 C0.89503906 143.43230225 0.20023437 143.42319824 -0.515625 143.41381836 C-6.07738985 143.28416911 -11.51499155 142.68706411 -17.02392578 141.91137695 C-21.77729206 141.24785959 -26.49282091 140.87069512 -31.28515625 140.62890625 C-36.93406016 140.33627673 -42.36933271 139.62177781 -47.9296875 138.59375 C-51.53208089 138.05452382 -55.08459602 137.86600463 -58.72265625 137.69140625 C-64.59652688 137.38783051 -70.35554403 136.77276532 -76.16015625 135.81640625 C-77.20755981 135.65797241 -77.20755981 135.65797241 -78.27612305 135.49633789 C-84.34893809 134.42527004 -88.43933598 132.12368158 -92.28515625 127.31640625 C-95.74698112 121.01093952 -96.33124639 115.14471699 -96.30981445 108.12353516 C-96.31492538 107.24939468 -96.32003632 106.37525421 -96.32530212 105.47462463 C-96.3391365 102.6015019 -96.33824592 99.72862072 -96.3359375 96.85546875 C-96.33982795 94.84679069 -96.34416334 92.83811345 -96.34892273 90.82943726 C-96.35637182 86.62487112 -96.35610326 82.42038896 -96.35083008 78.21582031 C-96.34503875 72.84380731 -96.36196481 67.47213946 -96.38517475 62.10018349 C-96.39995004 57.95303355 -96.4007786 53.805966 -96.39766502 49.6587944 C-96.39817638 47.67897229 -96.40337899 45.69914534 -96.41347694 43.71934891 C-96.42589709 40.94369726 -96.4190163 38.16870848 -96.4074707 35.39306641 C-96.41511444 34.585504 -96.42275818 33.77794159 -96.43063354 32.94590759 C-96.36983822 26.28988926 -94.91430774 20.33912338 -91.53515625 14.56640625 C-90.03515625 13.12890625 -90.03515625 13.12890625 -87.03515625 13.12890625 C-86.70515625 12.13890625 -86.37515625 11.14890625 -86.03515625 10.12890625 C-82.06526837 7.99477248 -77.87005403 7.56796344 -73.453125 7.09375 C-72.72128494 7.01016739 -71.98944489 6.92658478 -71.23542786 6.84046936 C-69.6850798 6.66493982 -68.1343392 6.49284752 -66.58325195 6.32397461 C-64.26737438 6.07128552 -61.95304014 5.80713456 -59.63867188 5.54101562 C-50.90975807 4.55578483 -42.20629032 3.82196957 -33.43286133 3.37719727 C-30.38973437 3.15481743 -27.52040511 2.74153072 -24.53515625 2.12890625 C-16.45098756 0.49500187 -8.21759283 0.34900973 0 0 Z M-25.03515625 11.98901367 C-31.34777891 12.73449848 -37.62352713 13.381905 -43.97265625 13.69140625 C-49.43526188 13.9734586 -54.64848985 14.65539537 -60.01953125 15.66796875 C-63.48885919 16.19825463 -66.90484829 16.34990736 -70.41015625 16.50390625 C-75.93148829 16.8569793 -79.04588518 17.24745331 -83.03515625 21.12890625 C-86.54302187 25.64468457 -86.47436542 29.56525979 -86.45507812 35.04663086 C-86.46354767 35.93505173 -86.47201721 36.8234726 -86.48074341 37.73881531 C-86.50410433 40.66977328 -86.50513581 43.60020604 -86.50390625 46.53125 C-86.51100814 48.57239491 -86.51870718 50.61353783 -86.52697754 52.65467834 C-86.54042011 56.93089347 -86.54199199 61.20692397 -86.53613281 65.4831543 C-86.53023565 70.95887125 -86.56083036 76.43370189 -86.60124969 81.9092474 C-86.62711754 86.12407695 -86.63000495 90.33869279 -86.62635803 94.55359077 C-86.62805 96.57219229 -86.63769983 98.5908036 -86.65550232 100.60932732 C-86.67767488 103.43408167 -86.66799907 106.25703813 -86.65039062 109.08178711 C-86.66365387 109.91262817 -86.67691711 110.74346924 -86.69058228 111.5994873 C-86.60572902 117.4673608 -85.25126163 120.02713044 -81.03515625 124.12890625 C-75.79561032 127.46709118 -69.26101539 127.44737353 -63.23486328 127.71826172 C-56.15797324 128.05251483 -49.13914445 128.79757258 -42.09765625 129.56640625 C-40.87739746 129.69829346 -39.65713867 129.83018066 -38.39990234 129.96606445 C-33.27785616 130.52649277 -28.15960256 131.09833046 -23.05078125 131.76953125 C-15.9594973 132.70013756 -8.93635418 133.34109498 -1.78515625 133.44140625 C-0.72905151 133.46787231 -0.72905151 133.46787231 0.34838867 133.49487305 C4.74833298 133.48898576 7.49481123 132.85448144 10.96484375 130.12890625 C13.53665163 127.2239676 14.34104346 125.41957472 14.35925293 121.55020142 C14.37060272 120.63623093 14.38195251 119.72226044 14.39364624 118.78059387 C14.39071564 117.78517075 14.38778503 116.78974762 14.38476562 115.76416016 C14.39323517 114.71007462 14.40170471 113.65598907 14.41043091 112.56996155 C14.43385063 109.0816749 14.43482179 105.59382811 14.43359375 102.10546875 C14.44069271 99.68175072 14.44839131 97.25803437 14.45666504 94.83432007 C14.47012161 89.7518039 14.47167345 84.66944308 14.46582031 79.58691406 C14.45992571 73.07429652 14.4905015 66.56242483 14.53093719 60.04995155 C14.55679029 55.04334498 14.55969368 50.03691849 14.55604553 45.03025436 C14.55773926 42.62927756 14.56740588 40.22829267 14.58518982 37.82738113 C14.60732917 34.46856082 14.59770131 31.11125662 14.58007812 27.75244141 C14.59334137 26.76106674 14.60660461 25.76969208 14.62026978 24.74827576 C14.56542401 20.24853272 14.44204011 17.11176747 11.5513916 13.5274353 C6.55603515 8.89519641 1.08280922 9.76419319 -5.38671875 9.97509766 C-11.960661 10.35688081 -18.49841006 11.2135814 -25.03515625 11.98901367 Z " fill="#323232" transform="translate(161.03515625,142.87109375)"/>
<path d="M0 0 C1.05945831 -0.00671722 2.11891663 -0.01343445 3.21047974 -0.02035522 C6.70042658 -0.03929796 10.19018077 -0.04325742 13.68017578 -0.04541016 C16.11483844 -0.05184011 18.54950033 -0.05856862 20.98416138 -0.06558228 C26.08320914 -0.07754534 31.1821892 -0.08126403 36.28125 -0.08007812 C42.80345749 -0.07987487 49.32522959 -0.10718867 55.84733391 -0.14162254 C60.87462342 -0.16389716 65.90180819 -0.1679155 70.929142 -0.16685867 C73.33321764 -0.16921332 75.73729623 -0.1780291 78.14132309 -0.19352341 C81.50858536 -0.21319606 84.87490898 -0.20733975 88.2421875 -0.1953125 C89.22741394 -0.20655151 90.21264038 -0.21779053 91.22772217 -0.22937012 C98.89020825 -0.16008845 105.6207036 1.52589847 111.31298828 6.91552734 C113.25048828 9.29052734 113.25048828 9.29052734 113.25048828 11.29052734 C113.91048828 11.29052734 114.57048828 11.29052734 115.25048828 11.29052734 C119.90832446 21.57658223 118.17856921 31.43651832 117.03076172 42.34863281 C116.26076497 50.09823424 116.00855564 57.82037033 115.81298828 65.60302734 C115.53441292 74.94667863 115.10504709 84.24164778 114.12548828 93.54052734 C114.04500244 94.49741455 113.9645166 95.45430176 113.8815918 96.44018555 C112.9357037 104.38295717 109.4902053 109.83788029 103.29376221 114.88400269 C98.7679224 116.975732 94.53363665 116.70837835 89.60449219 116.67871094 C87.99629356 116.68659637 87.99629356 116.68659637 86.35560608 116.69464111 C82.81260595 116.70784101 79.27005547 116.69910147 75.72705078 116.68896484 C73.26231805 116.69098587 70.79758591 116.69389755 68.33285522 116.69766235 C63.16634429 116.70208596 57.99998895 116.69565438 52.83349609 116.68164062 C46.21692293 116.66456691 39.60071534 116.67437854 32.98415565 116.69235802 C27.89345558 116.70321003 22.80284183 116.69974263 17.71213913 116.69197464 C15.27293225 116.68997564 12.83371749 116.69242136 10.39451981 116.6994133 C6.98122729 116.70704883 3.56852232 116.6953925 0.15527344 116.67871094 C-1.35209129 116.68781998 -1.35209129 116.68781998 -2.88990784 116.69711304 C-8.61684176 116.64537393 -12.69542021 116.05200141 -17.74951172 113.29052734 C-19.89404297 111.09130859 -19.89404297 111.09130859 -21.56201172 108.60302734 C-22.12533203 107.79478516 -22.68865234 106.98654297 -23.26904297 106.15380859 C-27.23679538 98.48002886 -27.22467052 90.18754798 -27.60107422 81.72802734 C-27.69671158 79.77098877 -27.69671158 79.77098877 -27.79428101 77.77441406 C-27.92852799 75.01778697 -28.05743588 72.26098173 -28.18212891 69.50390625 C-28.33991138 66.01845808 -28.50802604 62.53360887 -28.67964268 59.04881763 C-30.84220625 15.01286718 -30.84220625 15.01286718 -24.31201172 7.47802734 C-23.46638672 6.75615234 -22.62076172 6.03427734 -21.74951172 5.29052734 C-21.13076172 4.73365234 -20.51201172 4.17677734 -19.87451172 3.60302734 C-13.7098116 -0.20458155 -7.01201682 -0.0064244 0 0 Z M-18.60180664 16.21728516 C-20.03156526 18.80003567 -20.12248035 20.51638976 -20.11279297 23.46240234 C-20.11351807 24.50340088 -20.11424316 25.54439941 -20.11499023 26.61694336 C-20.09750732 27.74672607 -20.08002441 28.87650879 -20.06201172 30.04052734 C-20.05290771 31.22122803 -20.04380371 32.40192871 -20.03442383 33.6184082 C-19.85351018 47.02961555 -18.92456699 60.38838599 -17.97998047 73.76318359 C-17.77722636 76.86635238 -17.61953538 79.96449821 -17.49951172 83.07177734 C-17.46591553 83.89863037 -17.43231934 84.7254834 -17.39770508 85.57739258 C-17.31967905 87.64941701 -17.25459286 89.7219185 -17.19091797 91.79443359 C-16.53249633 97.00936605 -15.14557133 100.96427072 -11.24951172 104.66552734 C-7.97717678 106.79254505 -5.4920434 107.41517052 -1.67070007 107.43096924 C-0.42801865 107.43953445 -0.42801865 107.43953445 0.83976746 107.44827271 C1.74527847 107.44939056 2.65078949 107.45050842 3.58374023 107.45166016 C4.54014404 107.45662506 5.49654785 107.46158997 6.48193359 107.46670532 C9.65088619 107.48132904 12.81978872 107.48812939 15.98876953 107.49365234 C18.18971254 107.49940372 20.39065553 107.50516146 22.59159851 107.51092529 C27.20926141 107.52143595 31.8269069 107.52727816 36.44458008 107.53076172 C42.35953591 107.53624586 48.27426147 107.56027208 54.18914509 107.58873367 C58.73677745 107.60736392 63.28435441 107.61256587 67.83202171 107.6140976 C70.0124964 107.61712388 72.19297012 107.62515159 74.37340736 107.63828278 C77.42546697 107.65535066 80.47696467 107.65346102 83.52905273 107.64697266 C84.42849106 107.65618744 85.32792938 107.66540222 86.25462341 107.67489624 C92.13292046 107.63577974 96.32169485 106.69632194 101.00048828 102.85302734 C103.8099708 99.3411742 104.5226515 96.32706876 104.73706055 91.87036133 C104.79374405 90.78500595 104.85042755 89.69965057 104.90882874 88.58140564 C104.96099045 87.41162674 105.01315216 86.24184784 105.06689453 85.03662109 C105.1282811 83.82539078 105.18966766 82.61416046 105.25291443 81.3662262 C105.44800364 77.48718909 105.63096718 73.6076977 105.81298828 69.72802734 C106.00087873 65.87349946 106.19130842 62.01911227 106.3837738 58.16481018 C106.50272331 55.76745385 106.61866876 53.36994591 106.73109436 50.97227478 C107.02647671 44.86160279 107.42791709 38.78053855 108.01914978 32.6910553 C108.70633437 25.56035368 108.81920326 21.14359981 104.73486328 15.01708984 C102.50012496 12.41773632 100.50905042 10.50875697 97.05714607 9.91021061 C95.85759946 9.90656577 95.85759946 9.90656577 94.63381958 9.90284729 C93.71143494 9.89294266 92.78905029 9.88303802 91.8387146 9.87283325 C90.3315538 9.87958572 90.3315538 9.87958572 88.79394531 9.88647461 C87.19818665 9.87617973 87.19818665 9.87617973 85.57019043 9.86567688 C82.0494252 9.84735854 78.5291035 9.85125406 75.00830078 9.85693359 C72.56216283 9.85237386 70.11602616 9.84706892 67.66989136 9.84104919 C62.54029134 9.8321079 57.41084692 9.83455249 52.28125 9.84448242 C45.70819224 9.85596667 39.13567212 9.83577345 32.56268501 9.80656528 C27.50976143 9.78821602 22.45696694 9.78849337 17.4040184 9.7942028 C14.9807243 9.79435621 12.55742155 9.78829614 10.13415909 9.77591133 C6.74437034 9.76102983 3.35557794 9.77165912 -0.03417969 9.78881836 C-1.53526779 9.77431641 -1.53526779 9.77431641 -3.06668091 9.75952148 C-10.10278451 9.83408204 -13.6511159 11.06757495 -18.60180664 16.21728516 Z " fill="#2E2E2E" transform="translate(239.74951171875,313.70947265625)"/>
<path d="M0 0 C1.07914169 -0.00248245 2.15828339 -0.0049649 3.27012634 -0.00752258 C6.81118628 -0.00843552 10.35033295 0.03324852 13.89111328 0.07592773 C16.35970324 0.08458841 18.8283032 0.09073061 21.29690552 0.09446716 C27.77660631 0.11165406 34.25550899 0.16572739 40.73492432 0.22674561 C46.03610038 0.27043997 51.33721138 0.28791247 56.63853264 0.30401707 C62.95193911 0.32359419 69.26527104 0.35415616 75.57861328 0.38842773 C76.78607082 0.39485353 77.99352837 0.40127934 79.23757553 0.40789986 C82.64153436 0.42882793 86.04534 0.45711716 89.44921875 0.48828125 C90.96872887 0.49702774 90.96872887 0.49702774 92.51893616 0.50595093 C93.44402481 0.51599655 94.36911346 0.52604218 95.32223511 0.53639221 C96.12633253 0.54326333 96.93042995 0.55013445 97.75889397 0.55721378 C99.83642578 0.69702148 99.83642578 0.69702148 102.83642578 1.69702148 C102.83642578 2.35702148 102.83642578 3.01702148 102.83642578 3.69702148 C103.41392578 3.94452148 103.99142578 4.19202148 104.58642578 4.44702148 C108.29224221 6.50580839 110.50315482 9.19711504 112.83642578 12.69702148 C113.63305353 16.1081711 113.97663929 19.59670653 114.39892578 23.07202148 C114.52968506 24.12623291 114.66044434 25.18044434 114.79516602 26.26660156 C115.89863833 35.86338203 116.2512846 45.43332552 116.49072266 55.0847168 C116.6863468 62.54039208 117.11949409 69.904936 117.89892578 77.32202148 C119.17486123 89.7903731 120.05513923 98.86895132 112.83642578 109.69702148 C112.17642578 109.69702148 111.51642578 109.69702148 110.83642578 109.69702148 C110.83642578 110.35702148 110.83642578 111.01702148 110.83642578 111.69702148 C103.61026981 116.02007542 97.92879736 117.42621815 89.56274414 117.328125 C87.94363884 117.33885796 87.94363884 117.33885796 86.29182434 117.34980774 C82.75286477 117.36660376 79.21518817 117.34734528 75.67626953 117.32592773 C73.20105383 117.3267572 70.72583819 117.32921951 68.25062561 117.33323669 C63.07519863 117.33608842 57.90020591 117.32145264 52.72485352 117.29394531 C46.10513852 117.25984668 39.48619873 117.26589318 32.8664465 117.28460789 C27.75933926 117.29519671 22.65241112 117.28622307 17.54532051 117.27122307 C15.10498143 117.26605588 12.66462354 117.2665052 10.22428703 117.27276802 C6.80935571 117.27824345 3.39551931 117.25776933 -0.01928711 117.23046875 C-1.01850189 117.23699463 -2.01771667 117.24352051 -3.04721069 117.25024414 C-10.49777537 117.14942119 -16.67193207 115.57660616 -22.50341797 110.76733398 C-23.29425781 109.8044043 -23.29425781 109.8044043 -24.10107422 108.82202148 C-24.91898438 107.86682617 -24.91898438 107.86682617 -25.75341797 106.89233398 C-34.03386098 94.0014504 -28.74281823 70.51771191 -28.04663086 55.97729492 C-27.88088412 52.50183128 -27.73049515 49.02587452 -27.58342266 45.54957771 C-27.43756424 42.18412828 -27.27392345 38.81958621 -27.11279297 35.45483398 C-27.06265549 34.22233917 -27.01251801 32.98984436 -26.96086121 31.72000122 C-26.53048969 23.31285325 -25.7758589 13.43176311 -20.16357422 6.69702148 C-13.65335395 1.11802896 -8.43337727 -0.16852753 0 0 Z M-13.97607422 15.69702148 C-16.6705859 20.23514643 -16.44188236 25.33962076 -16.66357422 30.48608398 C-16.70417969 31.34454926 -16.74478516 32.20301453 -16.78662109 33.0874939 C-16.91607984 35.83217495 -17.04027 38.57705756 -17.16357422 41.32202148 C-17.28734828 44.04553424 -17.41236433 46.76896914 -17.54052734 49.49227905 C-17.62001768 51.18407071 -17.69701696 52.87598208 -17.77099609 54.56802368 C-18.0026891 59.53233856 -18.42347253 64.4497372 -18.94073486 69.39205933 C-19.45702532 74.73236364 -19.47398631 80.08622547 -19.53857422 85.44702148 C-19.57595703 86.6394043 -19.61333984 87.83178711 -19.65185547 89.06030273 C-19.88877279 96.09140918 -19.88877279 96.09140918 -17.14013672 102.33764648 C-10.58665884 107.53226675 -4.16885376 108.13938974 3.88916016 108.08520508 C4.86258865 108.09046204 5.83601715 108.09571899 6.83894348 108.10113525 C10.03618724 108.11427002 13.23292752 108.10562016 16.43017578 108.09545898 C18.66402278 108.09748159 20.89786912 108.10039458 23.13171387 108.10415649 C27.80532134 108.10857102 32.47875638 108.10217673 37.15234375 108.08813477 C43.13089474 108.0710436 49.10904164 108.08088943 55.08757782 108.09885216 C59.69792707 108.10971344 64.30818115 108.10623286 68.91853333 108.09846878 C71.12246245 108.09647327 73.32640032 108.09890317 75.53031921 108.10590744 C78.61500812 108.1135604 81.69905042 108.10186355 84.78369141 108.08520508 C85.68678543 108.09127777 86.58987946 108.09735046 87.52033997 108.10360718 C93.95758139 108.03948629 99.71889191 107.16313037 104.93017578 103.04077148 C107.7835291 99.29970825 109.16651146 96.54578411 109.04736328 91.79077148 C109.01304199 90.33574219 109.01304199 90.33574219 108.97802734 88.85131836 C108.72104105 83.12672723 108.3633221 77.41316708 107.96142578 71.69702148 C107.77126993 68.96933392 107.58378685 66.24147931 107.39892578 63.51342773 C107.35099884 62.80714737 107.3030719 62.100867 107.25369263 61.3731842 C106.89589377 55.95112325 106.63491492 50.52793656 106.39892578 45.09936523 C106.28856921 42.71951626 106.17689066 40.3397326 106.06488037 37.95996094 C105.99636467 36.41987358 105.93430531 34.87948432 105.87896729 33.33886719 C105.80064546 31.17461534 105.69961081 29.01244503 105.59423828 26.84936523 C105.54412598 25.61178467 105.49401367 24.3742041 105.44238281 23.09912109 C104.51531767 17.89418444 102.30207168 14.93868172 98.30703735 11.55418396 C93.71218109 9.09542577 90.10923462 9.13396725 84.97900391 9.17944336 C84.00265488 9.17243408 83.02630585 9.1654248 82.02037048 9.15820312 C78.80251375 9.14064053 75.58554101 9.15224014 72.36767578 9.16577148 C70.1261783 9.16307608 67.88468196 9.15919326 65.64318848 9.1541748 C60.94918671 9.14828209 56.25548974 9.15683573 51.56152344 9.17553711 C45.54898058 9.19832615 39.53715197 9.18520191 33.52463531 9.16124725 C28.89718254 9.14678339 24.2698987 9.15139805 19.6424408 9.16175842 C17.42569392 9.16442406 15.20893164 9.1611617 12.99220276 9.15184021 C9.8923386 9.1416653 6.79362618 9.15718983 3.69384766 9.17944336 C2.78042099 9.17134644 1.86699432 9.16324951 0.92588806 9.15490723 C-5.56307604 9.24107439 -9.4885278 10.74524612 -13.97607422 15.69702148 Z " fill="#2A2A2A" transform="translate(239.16357421875,-0.697021484375)"/>
<path d="M0 0 C1.26263672 0.45052734 1.26263672 0.45052734 2.55078125 0.91015625 C7.20307799 2.60517909 11.58100414 4.5645097 15.9765625 6.83496094 C18.98959638 8.28723087 22.12524785 9.25166494 25.3125 10.25 C30.21331822 11.82463766 34.95516605 13.52564356 39.6171875 15.71484375 C43.40976239 17.45365404 47.30089026 18.95901507 51.17578125 20.50390625 C53.74406659 21.68955462 55.76990983 22.86491925 57.875 24.75 C57.875 25.41 57.875 26.07 57.875 26.75 C58.535 26.75 59.195 26.75 59.875 26.75 C61.53125 29.1640625 61.53125 29.1640625 63.375 32.375 C63.9834375 33.41914062 64.591875 34.46328125 65.21875 35.5390625 C66.79746439 38.59968333 67.831563 41.47521312 68.875 44.75 C70.08575861 47.8907725 71.35945974 51.00596309 72.625 54.125 C77.44369981 66.09501863 82.14254202 78.07880685 86.015625 90.39453125 C86.84915951 92.96682095 86.84915951 92.96682095 88.875 95.75 C89.89153417 101.71236388 89.46592551 106.60902426 86.1875 111.75 C81.91336041 117.31332322 77.74767144 119.16408152 70.97998047 120.4675293 C64.61499846 121.0465735 58.33014938 119.71444455 52.0625 118.6875 C49.75376767 118.32787467 47.44418505 117.97409612 45.13450623 117.62060547 C43.52919034 117.37453956 41.9241809 117.12646672 40.31947327 116.87646484 C34.43408283 115.96512379 28.54001375 115.15850638 22.6328125 114.40234375 C21.37864281 114.24042793 21.37864281 114.24042793 20.09913635 114.07524109 C16.8316218 113.6540518 13.56413188 113.23349875 10.29452515 112.8288269 C-9.992274 110.30898621 -9.992274 110.30898621 -17 103.8125 C-18.10988281 102.80896484 -18.10988281 102.80896484 -19.2421875 101.78515625 C-22.92161625 97.80801439 -23.74089929 93.60123235 -24.6875 88.375 C-24.81898438 87.66021484 -24.95046875 86.94542969 -25.0859375 86.20898438 C-26.04341753 80.7590854 -26.50592871 75.36898304 -26.81640625 69.84375 C-27.17187385 64.4550272 -27.88533956 59.10594798 -28.5625 53.75 C-28.69438721 52.69981689 -28.82627441 51.64963379 -28.9621582 50.56762695 C-29.50848837 46.28932781 -30.05851469 42.01676631 -30.765625 37.76171875 C-31.85812301 31.12089158 -32.37911105 24.59629623 -32.5 17.875 C-32.52602295 17.08955811 -32.5520459 16.30411621 -32.57885742 15.49487305 C-32.5961042 9.89323733 -31.4590169 5.33862487 -28.125 0.75 C-19.74816041 -6.14613439 -9.24817564 -3.50201396 0 0 Z M-19.8125 7.8125 C-25.12803058 14.56466047 -23.02149954 23.68150414 -22.125 31.75 C-21.67301371 34.23041257 -21.14061475 36.67973361 -20.59375 39.140625 C-19.82159638 43.4389468 -19.66949446 47.77481838 -19.40234375 52.12890625 C-19.04786814 56.75705966 -18.36252986 61.30109286 -17.65625 65.88671875 C-17.25393204 68.8123986 -16.92446647 71.7060834 -16.65625 74.64453125 C-16.57753662 75.48991455 -16.49882324 76.33529785 -16.41772461 77.20629883 C-16.26779811 78.86280376 -16.12749017 80.52021648 -15.99829102 82.1784668 C-15.4154634 88.52681478 -13.99802057 92.91860211 -9.3125 97.5 C-4.18900538 101.11658444 0.71170106 101.9958299 6.875 102.625 C15.22839557 103.52436193 23.54936769 104.62391212 31.875 105.75 C44.30609872 107.42451236 44.30609872 107.42451236 56.75 109 C57.96429688 109.14953125 59.17859375 109.2990625 60.4296875 109.453125 C69.16619535 110.36892462 69.16619535 110.36892462 76.875 106.75 C79.20755821 103.90839825 79.20755821 103.90839825 78.671875 100.57421875 C77.80326825 96.4057579 76.58614542 92.55316503 75.125 88.5625 C74.85985596 87.82290039 74.59471191 87.08330078 74.3215332 86.32128906 C72.35139349 80.88796258 70.18978717 75.55372499 67.85546875 70.265625 C66.8802401 67.76344472 66.31723196 65.39388138 65.875 62.75 C65.215 62.75 64.555 62.75 63.875 62.75 C63.648125 61.533125 63.42125 60.31625 63.1875 59.0625 C61.07699964 49.70545646 57.92041182 39.60291423 50.875 32.75 C49.39 32.255 49.39 32.255 47.875 31.75 C47.875 31.09 47.875 30.43 47.875 29.75 C43.9607363 28.16068179 40.04315896 26.5796881 36.125 25 C35.03316406 24.5565625 33.94132812 24.113125 32.81640625 23.65625 C26.4617119 21.09933156 20.09464339 18.75137333 13.56518555 16.6784668 C9.8353098 15.39117054 6.32005898 13.72555813 2.75 12.0546875 C-8.57062931 5.95408163 -8.57062931 5.95408163 -19.8125 7.8125 Z " fill="#333333" transform="translate(402.125,14.25)"/>
<path d="M0 0 C0 0.66 0 1.32 0 2 C0.99 2.33 1.98 2.66 3 3 C11.35051656 14.88342741 6.15335506 32.78920038 4.37597656 46.10693359 C3.86149725 50.06575166 3.42377121 54.03063063 3 58 C2.67046926 61.00042766 2.33586959 64.0002758 2 67 C1.89187988 67.97066406 1.78375977 68.94132812 1.67236328 69.94140625 C1.31244297 73.12884866 0.93876156 76.31444874 0.5625 79.5 C0.39717773 80.98693359 0.39717773 80.98693359 0.22851562 82.50390625 C-0.54495877 88.92504005 -1.93341229 94.87155638 -4 101 C-4.66 101 -5.32 101 -6 101 C-6.185625 101.556875 -6.37125 102.11375 -6.5625 102.6875 C-9.81246053 107.91569738 -15.20957063 110.43677947 -21 112 C-24.75820157 112.57824315 -28.53180842 112.97416332 -32.3125 113.375 C-41.23284083 114.37649698 -50.08304679 115.58846781 -58.9375 117.0625 C-67.08635566 118.41651259 -75.21248242 119.58732633 -83.43334961 120.40454102 C-86.22003183 120.68176082 -88.91134537 120.9791478 -91.640625 121.62109375 C-96.28284043 122.3666151 -100.69917406 120.68011149 -105 119 C-107.9375 116.6875 -107.9375 116.6875 -110 114 C-110.763125 113.13375 -111.52625 112.2675 -112.3125 111.375 C-115.1083425 105.783315 -114.79481004 100.01726581 -113.21411133 94.01660156 C-112.14466191 90.94929336 -110.97758602 87.94489334 -109.75 84.9375 C-109.35425781 83.92623047 -108.95851563 82.91496094 -108.55078125 81.87304688 C-107.38593808 78.90747075 -106.19680766 75.95280029 -105 73 C-104.33492922 71.34545702 -103.67082424 69.69052541 -103.0078125 68.03515625 C-102.68425781 67.22763916 -102.36070313 66.42012207 -102.02734375 65.58813477 C-100.8808657 62.69987102 -99.75639505 59.80349431 -98.6328125 56.90625 C-97.79697198 54.77079537 -96.9610333 52.63537916 -96.125 50.5 C-95.71636719 49.43652344 -95.30773437 48.37304688 -94.88671875 47.27734375 C-87.97694257 29.73383101 -87.97694257 29.73383101 -82.81689453 26.72851562 C-82.21731934 26.48810547 -81.61774414 26.24769531 -81 26 C-81 25.34 -81 24.68 -81 24 C-69.51997025 18.9148659 -58.06757051 13.87423069 -46.265625 9.578125 C-39.69848927 7.17896572 -33.21238869 4.56248495 -26.71484375 1.98217773 C-25.77253906 1.61036377 -24.83023438 1.2385498 -23.859375 0.85546875 C-23.01858398 0.52184326 -22.17779297 0.18821777 -21.31152344 -0.15551758 C-14.51709598 -2.63776563 -6.57919072 -3.50890172 0 0 Z M-18.69702148 9.90380859 C-22.65148305 11.78608703 -26.7880363 13.115792 -30.9375 14.5 C-36.73856555 16.44404492 -42.34982145 18.53907689 -47.91674805 21.08056641 C-50.86440652 22.38150181 -53.88581315 23.4084014 -56.9375 24.4375 C-68.43740384 28.49848116 -76.91271903 32.31337942 -82.81640625 43.421875 C-84.52981768 47.15405832 -85.7430662 50.99750598 -86.9765625 54.91015625 C-88.31676941 58.95635344 -89.98166708 62.82741178 -91.65234375 66.74609375 C-93.44335231 71.07047094 -95.06899467 75.44919892 -96.68334961 79.84204102 C-97.96892703 83.3208826 -99.30263716 86.76461566 -100.75 90.1796875 C-101.03238525 90.85281982 -101.31477051 91.52595215 -101.60571289 92.21948242 C-102.39269418 94.08148894 -103.19397208 95.93743415 -103.99609375 97.79296875 C-105.04797174 101.15324824 -105.15287735 102.71516855 -104 106 C-101.70614672 108.75262393 -100.42647711 109.85784096 -97 111 C-94.51951924 110.98816 -92.09703103 110.90633957 -89.625 110.75 C-88.88185547 110.70480225 -88.13871094 110.65960449 -87.37304688 110.61303711 C-79.56492394 110.07223916 -71.86353545 108.92027845 -64.12890625 107.75390625 C-59.57390039 107.07001979 -55.01477298 106.50973312 -50.4375 106 C-48.37195062 105.75961813 -46.30694845 105.51512772 -44.2421875 105.26806641 C-42.64618743 105.07725542 -41.04978641 104.88978542 -39.453125 104.70458984 C-36.77819079 104.3863548 -34.1081477 104.03974901 -31.4375 103.6875 C-30.20567993 103.54731445 -30.20567993 103.54731445 -28.94897461 103.40429688 C-21.70821212 102.40444896 -16.26574561 99.73051394 -11.5625 94.0625 C-9.31286631 89.53376143 -9.43140151 84.6017328 -9.203125 79.63671875 C-9.02322897 76.41588792 -8.65675327 73.36515465 -8.125 70.1875 C-6.55495559 60.56804881 -5.47214052 50.88608858 -4.37011719 41.20361328 C-4.01528277 38.13228268 -3.63735065 35.06445113 -3.2578125 31.99609375 C-3.04545743 30.1433911 -2.83445013 28.29053331 -2.625 26.4375 C-2.51607422 25.60025391 -2.40714844 24.76300781 -2.29492188 23.90039062 C-1.67702672 18.09406284 -2.4237813 14.27483694 -5 9 C-10.416228 5.38918134 -13.1809082 7.07377532 -18.69702148 9.90380859 Z " fill="#333333" transform="translate(192,13)"/>
<path d="M0 0 C2.27658506 0.28531037 4.55416075 0.56134205 6.83203125 0.83618164 C20.69205566 2.5386162 20.69205566 2.5386162 23.5458374 5.85525513 C25.85037281 10.22513135 25.92688113 13.3458851 25.84082031 18.19702148 C25.84140442 19.06596542 25.84198853 19.93490936 25.84259033 20.83018494 C25.8398152 23.68741531 25.80875051 26.54358782 25.77734375 29.40063477 C25.76987932 31.38745555 25.76418734 33.37428371 25.76019287 35.3611145 C25.74495247 40.57926924 25.70568421 45.79697552 25.66137695 51.01495361 C25.62038996 56.34397313 25.60217452 61.67306541 25.58203125 67.00219727 C25.53918857 77.45031049 25.4709564 87.89809152 25.38671875 98.34594727 C25.05671875 98.34594727 24.72671875 98.34594727 24.38671875 98.34594727 C24.38671875 75.24594727 24.38671875 52.14594727 24.38671875 28.34594727 C6.56671875 28.34594727 -11.25328125 28.34594727 -29.61328125 28.34594727 C-29.50628906 32.48899414 -29.39929688 36.63204102 -29.2890625 40.90063477 C-29.21223402 44.22877899 -29.13864957 47.55696022 -29.06723785 50.88522339 C-28.99126264 54.3850988 -28.90973609 57.88463223 -28.81420898 61.3840332 C-28.70457071 65.41011939 -28.6212527 69.43639398 -28.5390625 73.46313477 C-28.50170486 74.70207489 -28.46434723 75.94101501 -28.42585754 77.21749878 C-28.30130809 84.47903252 -28.99812861 90.54668471 -31.61328125 97.34594727 C-32.27328125 97.34594727 -32.93328125 97.34594727 -33.61328125 97.34594727 C-33.69578125 97.88219727 -33.77828125 98.41844727 -33.86328125 98.97094727 C-34.87704223 102.18119037 -36.68488674 104.60887118 -38.61328125 107.34594727 C-38.61328125 103.73153595 -37.48825227 101.96945785 -35.78125 98.86938477 C-31.47180744 89.55868277 -31.20783571 81.25745115 -31.26372147 71.17594147 C-31.2775634 68.4432071 -31.2709636 65.71119033 -31.25888062 62.97845459 C-31.22805047 55.21564797 -31.2328541 47.45301533 -31.25292969 39.69018555 C-31.26384376 34.92691457 -31.25067358 30.16418856 -31.22303391 25.40099335 C-31.21759746 23.59092294 -31.22164679 21.78079787 -31.23543167 19.97077179 C-31.25447371 17.44320498 -31.24308923 14.91742837 -31.22509766 12.38989258 C-31.23843643 11.64589706 -31.25177521 10.90190155 -31.26551819 10.13536072 C-31.20278898 6.17044204 -30.75019845 4.51276473 -28.20004272 1.40570068 C-20.64122083 -4.61314156 -9.01747234 -1.13210195 0 0 Z " fill="#7DBFC2" transform="translate(542.61328125,165.654052734375)"/>
<path d="M0 0 C1.6940094 -0.0076664 1.6940094 -0.0076664 3.42224121 -0.01548767 C7.14426008 -0.0293537 10.86609318 -0.02842921 14.58813477 -0.02612305 C17.18213469 -0.0300114 19.77613398 -0.03434635 22.37013245 -0.03910828 C27.80293107 -0.04656391 33.23565805 -0.04642265 38.66845703 -0.04101562 C44.93341417 -0.03497595 51.19814673 -0.04729191 57.46306556 -0.06858569 C63.5088363 -0.08837305 69.55448999 -0.09136994 75.60029793 -0.08785057 C78.16428212 -0.08836331 80.72826995 -0.09359208 83.29223442 -0.10366249 C86.8798939 -0.11602542 90.46703604 -0.1092356 94.0546875 -0.09765625 C95.63610283 -0.10912186 95.63610283 -0.10912186 97.24946594 -0.12081909 C104.81844921 -0.06693783 111.57298254 0.93242941 117.46704102 6.1496582 C118.02133789 6.62145508 118.57563477 7.09325195 119.14672852 7.5793457 C122.15441788 11.10728404 122.8418107 14.86330633 122.87051392 19.39363098 C122.8816774 20.40178864 122.89284088 21.40994629 122.90434265 22.44865417 C122.90650284 23.54341568 122.90866302 24.63817719 122.91088867 25.76611328 C122.92595711 27.50822083 122.92595711 27.50822083 122.94132996 29.28552246 C122.97220377 33.12173979 122.98920906 36.95788719 123.00610352 40.79418945 C123.02481178 43.45506307 123.04428855 46.11591993 123.06478882 48.77677917 C123.11153369 55.06291295 123.1482985 61.34906372 123.18146169 67.63528222 C123.21971347 74.79372148 123.26911559 81.95207028 123.31944585 89.11043322 C123.42270181 103.83177158 123.51198278 118.55317497 123.59204102 133.2746582 C122.93204102 132.9446582 122.27204102 132.6146582 121.59204102 132.2746582 C121.59204102 93.9946582 121.59204102 55.7146582 121.59204102 16.2746582 C120.93204102 16.2746582 120.27204102 16.2746582 119.59204102 16.2746582 C118.47875977 14.5949707 118.47875977 14.5949707 117.27954102 12.3996582 C115.53658638 9.46360962 114.86776857 8.4217129 111.77954102 6.7746582 C111.05766602 6.6096582 110.33579102 6.4446582 109.59204102 6.2746582 C109.59204102 5.6146582 109.59204102 4.9546582 109.59204102 4.2746582 C93.6066471 4.25131134 77.6212587 4.23367023 61.63585186 4.22284603 C54.21377175 4.21768688 46.79170222 4.21065141 39.36962891 4.19921875 C32.9015392 4.1892603 26.43345715 4.182802 19.96535999 4.18056971 C16.53967357 4.17926458 13.11400909 4.17619118 9.6883297 4.16892815 C5.86675985 4.16089127 2.04521157 4.16066782 -1.77636719 4.16113281 C-2.9157222 4.15753754 -4.05507721 4.15394226 -5.22895813 4.15023804 C-6.26802307 4.1516127 -7.30708801 4.15298737 -8.37763977 4.15440369 C-9.28191869 4.15348189 -10.18619761 4.1525601 -11.11787891 4.15161037 C-13.57163036 4.18206411 -13.57163036 4.18206411 -16.40795898 5.2746582 C-16.73795898 5.9346582 -17.06795898 6.5946582 -17.40795898 7.2746582 C-21.87854722 11.2746582 -21.87854722 11.2746582 -25.40795898 11.2746582 C-25.12851946 7.50222463 -23.13574629 5.8230704 -20.36889648 3.4230957 C-14.0087535 -0.30176891 -7.14439356 -0.01675625 0 0 Z " fill="#BBDEDF" transform="translate(237.407958984375,141.725341796875)"/>
<path d="M0 0 C0.66 0 1.32 0 2 0 C1.67 1.98 1.34 3.96 1 6 C0.34 6 -0.32 6 -1 6 C-1 6.66 -1 7.32 -1 8 C-2.64453125 9.69140625 -2.64453125 9.69140625 -4.8125 11.5625 C-5.52019531 12.18253906 -6.22789062 12.80257813 -6.95703125 13.44140625 C-9 15 -9 15 -12 16 C-11.505 17.98 -11.505 17.98 -11 20 C-11.73476562 20.103125 -12.46953125 20.20625 -13.2265625 20.3125 C-16.25227857 21.06253666 -17.89864344 22.1404976 -20.375 24 C-24.386664 26.80883677 -27.13591693 27.79301774 -32 28 C-32 28.66 -32 29.32 -32 30 C-47.95270774 30.35780745 -63.6708097 30.02740927 -79.5625 28.625 C-80.30723572 28.56178558 -81.05197144 28.49857117 -81.8192749 28.43344116 C-83.94444732 28.25003201 -86.06794008 28.05368739 -88.19140625 27.8515625 C-89.41029541 27.73635254 -90.62918457 27.62114258 -91.88500977 27.50244141 C-94.70381882 27.04777341 -96.5759226 26.45767905 -99 25 C-90.02894595 24.83634441 -81.12640815 25.09732975 -72.16796875 25.578125 C-70.02930336 25.68762664 -67.89063137 25.79699967 -65.75195312 25.90625 C-62.45564794 26.07560688 -59.16033517 26.25161308 -55.86547852 26.44726562 C-52.63370093 26.63656877 -49.40150639 26.79718753 -46.16796875 26.953125 C-44.70824898 27.04971405 -44.70824898 27.04971405 -43.21903992 27.14825439 C-34.15066978 27.54086314 -26.87025145 24.80131757 -19.5625 19.4375 C-18.75941406 18.85871094 -17.95632812 18.27992188 -17.12890625 17.68359375 C-15.00262297 16.07825447 -15.00262297 16.07825447 -13.33984375 14.28515625 C-12 13 -12 13 -10 13 C-9.74347656 12.41476562 -9.48695313 11.82953125 -9.22265625 11.2265625 C-7.89437838 8.80765392 -6.43475199 7.26801128 -4.4375 5.375 C-1.85984611 2.95478041 -1.85984611 2.95478041 0 0 Z " fill="#6BC4C5" transform="translate(201,279)"/>
<path d="M0 0 C1.32 0.33 2.64 0.66 4 1 C4 1.66 4 2.32 4 3 C5.36125 3.2165625 5.36125 3.2165625 6.75 3.4375 C10 4 10 4 11.91621399 4.53953552 C14.24331663 5.05376688 16.21127133 5.04326066 18.59057617 4.92993164 C19.94931099 4.86975609 19.94931099 4.86975609 21.335495 4.80836487 C22.31146133 4.75945602 23.28742767 4.71054718 24.29296875 4.66015625 C25.31240067 4.61434921 26.33183258 4.56854218 27.38215637 4.52134705 C30.65088609 4.37393604 33.91918742 4.21886822 37.1875 4.0625 C51.13473519 3.40394766 65.0351197 2.81674014 79 3 C79 3.99 79 4.98 79 6 C63.01816671 6.6450375 47.03894403 7.11513674 31.04333496 7.17724609 C29.48691944 7.18402048 27.93051461 7.19421065 26.37414551 7.20800781 C8.03774571 7.35829807 8.03774571 7.35829807 2 5 C0.375 2.375 0.375 2.375 0 0 Z " fill="#72C6C7" transform="translate(385,301)"/>
<path d="M0 0 C1.22589844 0.01353516 1.22589844 0.01353516 2.4765625 0.02734375 C3.41628906 0.04474609 3.41628906 0.04474609 4.375 0.0625 C4.375 0.3925 4.375 0.7225 4.375 1.0625 C-0.08 1.5575 -0.08 1.5575 -4.625 2.0625 C-4.955 3.0525 -5.285 4.0425 -5.625 5.0625 C-7.6875 6.25 -7.6875 6.25 -9.625 7.0625 C-9.61833817 8.06759613 -9.61167633 9.07269226 -9.60481262 10.10824585 C-9.54381841 19.61172511 -9.49893978 29.11516431 -9.46956348 38.61879539 C-9.45395278 43.50392229 -9.43279902 48.3888903 -9.39868164 53.27392578 C-9.36592357 57.99423393 -9.34811247 62.7143899 -9.34036827 67.43480301 C-9.33485415 69.22960427 -9.32408688 71.02439784 -9.30780983 72.81913376 C-9.1506835 90.87328004 -9.1506835 90.87328004 -12.625 99.0625 C-13.285 99.0625 -13.945 99.0625 -14.625 99.0625 C-14.7075 99.59875 -14.79 100.135 -14.875 100.6875 C-15.88876098 103.8977431 -17.69660549 106.32542392 -19.625 109.0625 C-19.625 105.44808868 -18.49997102 103.68601059 -16.79296875 100.5859375 C-12.48352619 91.2752355 -12.21955446 82.97400388 -12.27544022 72.8924942 C-12.28928215 70.15975983 -12.28268235 67.42774307 -12.27059937 64.69500732 C-12.23976922 56.93220071 -12.24457285 49.16956807 -12.26464844 41.40673828 C-12.27556251 36.64346731 -12.26239233 31.8807413 -12.23475266 27.11754608 C-12.22931621 25.30747568 -12.23336554 23.4973506 -12.24715042 21.68732452 C-12.26619246 19.15975772 -12.25480798 16.6339811 -12.23681641 14.10644531 C-12.25015518 13.3624498 -12.26349396 12.61845428 -12.27723694 11.85191345 C-12.21450773 7.88699477 -11.7619172 6.22931747 -9.21176147 3.12225342 C-5.79754041 0.40362104 -4.27202876 -0.06102898 0 0 Z " fill="#90E1E4" transform="translate(523.625,163.9375)"/>
<path d="M0 0 C0 23.1 0 46.2 0 70 C-0.66 69.67 -1.32 69.34 -2 69 C-2 46.89 -2 24.78 -2 2 C-3.98 2 -5.96 2 -8 2 C-4.91190305 0.23537317 -3.76687864 0 0 0 Z " fill="#189B9A" transform="translate(359,204)"/>
<path d="M0 0 C3 1 3 1 5 4 C5.31785583 5.85427856 5.31785583 5.85427856 5.41186523 7.98486328 C5.45030045 8.80284393 5.48873566 9.62082458 5.52833557 10.46359253 C5.55894577 11.36506012 5.58955597 12.26652771 5.62109375 13.1953125 C5.65883408 14.15406281 5.6965744 15.11281311 5.73545837 16.10061646 C6.19479567 29.3241993 6.11204253 42.55839972 6.06866455 55.78790283 C6.05822567 59.32213724 6.05382404 62.85637945 6.04882812 66.390625 C6.03827062 73.26043493 6.02132512 80.13021523 6 87 C3.61615733 83.29288897 3.69403303 79.64897906 3.68115234 75.38574219 C3.67110672 74.62437958 3.6610611 73.86301697 3.65071106 73.07858276 C3.61987938 70.56802102 3.6028441 68.05756592 3.5859375 65.546875 C3.56722583 63.80380333 3.54765241 62.06074071 3.5272522 60.31768799 C3.47592488 55.73434794 3.43630237 51.15097852 3.39910889 46.56750488 C3.35907301 41.88867931 3.30797876 37.20997598 3.2578125 32.53125 C3.16104612 23.35425253 3.07664358 14.17718605 3 5 C2.34 5 1.68 5 1 5 C0.67 3.35 0.34 1.7 0 0 Z " fill="#D5E6E9" transform="translate(50,166)"/>
<path d="M0 0 C0.33 0 0.66 0 1 0 C1.02893932 3.62498334 1.04677792 7.24993713 1.0625 10.875 C1.07087891 11.90753906 1.07925781 12.94007813 1.08789062 14.00390625 C1.09111328 14.99003906 1.09433594 15.97617187 1.09765625 16.9921875 C1.10289307 17.90339355 1.10812988 18.81459961 1.11352539 19.75341797 C1 22 1 22 0 24 C-0.2950612 26.40086838 -0.54275955 28.78686496 -0.75390625 31.1953125 C-0.81907944 31.90275604 -0.88425262 32.61019958 -0.95140076 33.33908081 C-1.15887884 35.6007277 -1.36075234 37.86283544 -1.5625 40.125 C-1.70210539 41.6575857 -1.8420748 43.19013829 -1.98242188 44.72265625 C-2.32584124 48.4813995 -2.66423469 52.2405656 -3 56 C-3.99 56 -4.98 56 -6 56 C-5.54722527 46.93259019 -4.82137445 38.01094764 -3.5390625 29.015625 C-2.77544066 23.53420856 -2.24421525 18.02680593 -1.69750977 12.52026367 C-1.27297255 8.31364779 -0.75286501 4.16407638 0 0 Z " fill="#91D7D8" transform="translate(378,336)"/>
<path d="M0 0 C5.28470322 -0.40651563 10.274891 0.58273371 15 3 C15.33 3.99 15.66 4.98 16 6 C23.33763707 7.17402193 30.58165418 7.09377123 38 7 C38 7.66 38 8.32 38 9 C32.65997077 12.01827739 29.69138986 12.09948256 23.78173828 10.78369141 C18.95403505 9.42359597 14.44233397 7.42773437 9.875 5.375 C8.91851562 4.95476562 7.96203125 4.53453125 6.9765625 4.1015625 C4.64695739 3.07653625 2.32175932 2.04264488 0 1 C0 0.67 0 0.34 0 0 Z " fill="#66C2C1" transform="translate(150,409)"/>
<path d="M0 0 C1.21032519 3.63097556 0.7013682 4.36108859 -0.765625 7.7890625 C-1.16136719 8.73136719 -1.55710937 9.67367188 -1.96484375 10.64453125 C-2.38894531 11.62808594 -2.81304687 12.61164063 -3.25 13.625 C-6.11268362 20.35275803 -8.78633669 27.02839803 -11 34 C-12.22602512 30.32192463 -11.70295577 28.11756073 -11.0625 24.3125 C-10.86785156 23.13300781 -10.67320312 21.95351563 -10.47265625 20.73828125 C-10.31667969 19.83464844 -10.16070312 18.93101562 -10 18 C-9.01 17.67 -8.02 17.34 -7 17 C-5.84672243 12.05738183 -5.46027023 7.04338661 -5 2 C-3.35 2 -1.7 2 0 2 C0 1.34 0 0.68 0 0 Z " fill="#76CACC" transform="translate(478,342)"/>
<path d="M0 0 C0.99 0 1.98 0 3 0 C2.84007568 0.97090576 2.68015137 1.94181152 2.51538086 2.94213867 C1.89922688 7.27122931 1.81169561 11.55879549 1.75390625 15.92578125 C1.72101276 17.62565706 1.68780047 19.32552673 1.65429688 21.02539062 C1.60665023 23.68298721 1.56208947 26.34055125 1.52319336 28.99829102 C1.4836432 31.5785243 1.43211558 34.15829867 1.37890625 36.73828125 C1.3704921 37.53720291 1.36207794 38.33612457 1.35340881 39.15925598 C1.22682161 44.77317839 1.22682161 44.77317839 -1 47 C-1.99 47 -2.98 47 -4 47 C-4 47.66 -4 48.32 -4 49 C-5.98 49.495 -5.98 49.495 -8 50 C-6.63029745 47.04987143 -5.17390875 44.4347778 -3 42 C-2.01 42 -1.02 42 0 42 C0 28.14 0 14.28 0 0 Z " fill="#159CA0" transform="translate(211,229)"/>
<path d="M0 0 C0.495 0.99 0.495 0.99 1 2 C-2.38173316 3.97413429 -5.44042351 4.49914935 -9.3046875 5 C-10.52800781 5.165 -11.75132812 5.33 -13.01171875 5.5 C-14.92404297 5.7475 -14.92404297 5.7475 -16.875 6 C-19.39392952 6.32799896 -21.9121937 6.66115751 -24.4296875 7 C-25.54585449 7.144375 -26.66202148 7.28875 -27.81201172 7.4375 C-31.02286149 8.00403376 -33.93817236 8.8914371 -37 10 C-35.625 8.5 -35.625 8.5 -34 7 C-33.34 7 -32.68 7 -32 7 C-32 6.34 -32 5.68 -32 5 C-28.04 5 -24.08 5 -20 5 C-19.67 4.01 -19.34 3.02 -19 2 C-12.73 1.34 -6.46 0.68 0 0 Z " fill="#7ECECE" transform="translate(564,267)"/>
<path d="M0 0 C-3.68119495 1.6601996 -7.37092665 3.30052283 -11.0625 4.9375 C-12.62000977 5.64036133 -12.62000977 5.64036133 -14.20898438 6.35742188 C-26.70335652 11.87081149 -26.70335652 11.87081149 -33.3125 10.125 C-34.89500185 9.46255736 -36.46555747 8.76722127 -38 8 C-37.67 7.34 -37.34 6.68 -37 6 C-35.515 6.99 -35.515 6.99 -34 8 C-27.67887225 8.85092104 -22.55400845 8.060372 -17 5 C-15.98198643 4.01834406 -14.9753197 3.02408568 -14 2 C-13.01 2 -12.02 2 -11 2 C-11 1.34 -11 0.68 -11 0 C-3.375 -1.125 -3.375 -1.125 0 0 Z " fill="#9BDDDD" transform="translate(414,410)"/>
<path d="M0 0 C0.99 0 1.98 0 3 0 C1.68332049 2.67499315 0.30154238 5.29441063 -1.1640625 7.890625 C-1.56367188 8.59960938 -1.96328125 9.30859375 -2.375 10.0390625 C-2.7875 10.76867187 -3.2 11.49828125 -3.625 12.25 C-4.04523438 12.99507813 -4.46546875 13.74015625 -4.8984375 14.5078125 C-5.93143065 16.33902763 -6.96559955 18.16957944 -8 20 C-8.33 20 -8.66 20 -9 20 C-8.505 15.545 -8.505 15.545 -8 11 C-7.34 11 -6.68 11 -6 11 C-6 10.34 -6 9.68 -6 9 C-6.66 9 -7.32 9 -8 9 C-7 6 -7 6 -5 4.9375 C-4.34 4.628125 -3.68 4.31875 -3 4 C-2.67 3.34 -2.34 2.68 -2 2 C-1.34 2 -0.68 2 0 2 C0 1.34 0 0.68 0 0 Z " fill="#53BDBC" transform="translate(497,302)"/>
<path d="M0 0 C2.9375 1.3125 2.9375 1.3125 6 3 C6.33 3.99 6.66 4.98 7 6 C7.33 5.34 7.66 4.68 8 4 C8.99 4 9.98 4 11 4 C11 4.66 11 5.32 11 6 C10.34 6 9.68 6 9 6 C9.103125 7.27875 9.20625 8.5575 9.3125 9.875 C9.39951172 10.95394531 9.39951172 10.95394531 9.48828125 12.0546875 C9.87393036 14.39519216 9.87393036 14.39519216 13 16 C13.6875 19.125 13.6875 19.125 14 22 C13.34 22.33 12.68 22.66 12 23 C11.46890625 21.90300781 10.9378125 20.80601562 10.390625 19.67578125 C9.67740839 18.22119474 8.96384852 16.7667765 8.25 15.3125 C7.72792969 14.2306543 7.72792969 14.2306543 7.1953125 13.12695312 C5.15555562 8.99077946 2.94691001 5.57744255 0 2 C0 1.34 0 0.68 0 0 Z " fill="#52BDC0" transform="translate(64,298)"/>
<path d="M0 0 C-0.33 0.66 -0.66 1.32 -1 2 C-3.36621579 2.58165665 -5.66385741 3.04042741 -8.0625 3.4375 C-9.51176511 3.69244492 -10.96098243 3.94766167 -12.41015625 4.203125 C-13.16184082 4.33267578 -13.91352539 4.46222656 -14.68798828 4.59570312 C-18.46554883 5.2562776 -22.2321346 5.97406056 -26 6.6875 C-27.35411548 6.94167912 -28.70827745 7.19561073 -30.0625 7.44921875 C-31.031875 7.63097656 -32.00125 7.81273437 -33 8 C-33 7.34 -33 6.68 -33 6 C-28.81548911 4.9872056 -24.62696925 3.99206632 -20.4375 3 C-19.25607422 2.71382812 -18.07464844 2.42765625 -16.85742188 2.1328125 C-11.13153071 0.78554399 -5.89070335 -0.41520376 0 0 Z " fill="#60BFC3" transform="translate(275,215)"/>
<path d="M0 0 C1.485 0.99 1.485 0.99 3 2 C3.33333333 3.66666667 3.66666667 5.33333333 4 7 C4.99 7.66 5.98 8.32 7 9 C9.78825238 14.53060761 10.33250886 19.9040042 10 26 C7.73296582 23.2086368 6.34706652 20.69852483 5.17578125 17.3046875 C4.86962891 16.42425781 4.56347656 15.54382813 4.24804688 14.63671875 C3.93931641 13.72535156 3.63058594 12.81398438 3.3125 11.875 C2.99216797 10.95589844 2.67183594 10.03679687 2.34179688 9.08984375 C0 2.28914579 0 2.28914579 0 0 Z " fill="#7DCECF" transform="translate(82,333)"/>
<path d="M0 0 C0.33 0 0.66 0 1 0 C1.11097627 6.76261649 0.69258682 13.33785639 0 20.0625 C-0.09539062 21.02349609 -0.19078125 21.98449219 -0.2890625 22.97460938 C-0.5221192 25.31682923 -0.75916349 27.65856955 -1 30 C-1.99 30 -2.98 30 -4 30 C-3.67 24.72 -3.34 19.44 -3 14 C-2.34 14 -1.68 14 -1 14 C-0.67 9.38 -0.34 4.76 0 0 Z " fill="#58BABA" transform="translate(376,362)"/>
<path d="M0 0 C0.66 1.32 1.32 2.64 2 4 C1.27039063 4.103125 0.54078125 4.20625 -0.2109375 4.3125 C-3.26486321 5.06528841 -5.07860619 6.1798972 -7.625 8 C-12.59085865 11.52525119 -15.88130281 12.11544712 -22 12 C-20.00601973 10.99855901 -18.0097219 10.00469006 -16 9.03515625 C-12.37303413 7.27126074 -9.21824057 5.44142388 -6 3 C-4.34416775 2.30686092 -2.67889021 1.63525576 -1 1 C-0.67 0.67 -0.34 0.34 0 0 Z " fill="#5EC0C0" transform="translate(188,295)"/>
<path d="M0 0 C0.66 0.33 1.32 0.66 2 1 C1.0479279 2.00596297 0.08812654 3.00461563 -0.875 4 C-1.40867187 4.556875 -1.94234375 5.11375 -2.4921875 5.6875 C-4 7 -4 7 -6 7 C-6.33 7.99 -6.66 8.98 -7 10 C-7.66 10 -8.32 10 -9 10 C-9.33 10.99 -9.66 11.98 -10 13 C-10.66 13 -11.32 13 -12 13 C-12.309375 13.61875 -12.61875 14.2375 -12.9375 14.875 C-13.625 16.25 -14.3125 17.625 -15 19 C-15.66 19 -16.32 19 -17 19 C-17 17.68 -17 16.36 -17 15 C-16.34 15 -15.68 15 -15 15 C-15 14.01 -15 13.02 -15 12 C-13.68 12 -12.36 12 -11 12 C-10.855625 11.38125 -10.71125 10.7625 -10.5625 10.125 C-10 8 -10 8 -9 6 C-8.236875 5.71125 -7.47375 5.4225 -6.6875 5.125 C-3.71091157 3.87898624 -2.13992716 2.37769684 0 0 Z " fill="#97DBDB" transform="translate(518,282)"/>
<path d="M0 0 C1.22589844 0.01353516 1.22589844 0.01353516 2.4765625 0.02734375 C3.41628906 0.04474609 3.41628906 0.04474609 4.375 0.0625 C4.375 0.3925 4.375 0.7225 4.375 1.0625 C-0.08 1.5575 -0.08 1.5575 -4.625 2.0625 C-4.955 3.0525 -5.285 4.0425 -5.625 5.0625 C-7.605 6.0525 -7.605 6.0525 -9.625 7.0625 C-9.955 14.6525 -10.285 22.2425 -10.625 30.0625 C-10.955 30.0625 -11.285 30.0625 -11.625 30.0625 C-11.77053599 26.16706123 -11.85915059 22.27232349 -11.9375 18.375 C-11.97939453 17.27220703 -12.02128906 16.16941406 -12.06445312 15.03320312 C-12.18525943 7.03582553 -12.18525943 7.03582553 -10.56005859 4.21240234 C-7.22339624 0.80711968 -4.60049136 -0.06572131 0 0 Z " fill="#C8E6E7" transform="translate(523.625,163.9375)"/>
<path d="M0 0 C5.72554976 4.25906017 11.37992202 8.60280936 17 13 C15 14 15 14 11.875 13.0625 C10.451875 12.5365625 10.451875 12.5365625 9 12 C9 11.34 9 10.68 9 10 C7.35 10 5.7 10 4 10 C3.566875 8.63875 3.566875 8.63875 3.125 7.25 C2.23158284 4.66901709 1.24772883 2.41157674 0 0 Z " fill="#7FD1D1" transform="translate(74,285)"/>
<path d="M0 0 C7.00584959 -0.17387838 13.63609505 0.4823548 20.5625 1.5 C21.57119141 1.64308594 22.57988281 1.78617188 23.61914062 1.93359375 C26.08027802 2.2835185 28.5404548 2.63908326 31 3 C31 3.33 31 3.66 31 4 C28.10410348 4.02706445 25.20846205 4.04687029 22.3125 4.0625 C21.08756836 4.07506836 21.08756836 4.07506836 19.83789062 4.08789062 C15.75500916 4.10442051 11.98348293 4.03035098 8 3 C8 2.34 8 1.68 8 1 C5.36 1 2.72 1 0 1 C0 0.67 0 0.34 0 0 Z " fill="#C5E2E3" transform="translate(530,165)"/>
<path d="M0 0 C4.5152028 0.13280008 7.36666312 2.33563897 10.6171875 5.234375 C12 7 12 7 12.4375 10.875 C12.2209375 12.421875 12.2209375 12.421875 12 14 C9.87961365 11.38485683 7.86908256 8.80362384 6 6 C3.44816596 4.79549696 3.44816596 4.79549696 1 4 C1 3.34 1 2.68 1 2 C0.34 1.67 -0.32 1.34 -1 1 C-0.67 0.67 -0.34 0.34 0 0 Z " fill="#A7CDCE" transform="translate(346,144)"/>
<path d="M0 0 C6.35826792 -0.48909753 12.52967718 0.90972684 17.4375 5.0625 C18.2109375 6.0215625 18.2109375 6.0215625 19 7 C19.66 7.66 20.32 8.32 21 9 C16.18080529 8.32512263 12.08116134 6.42034091 7.6875 4.4375 C6.94693359 4.10814453 6.20636719 3.77878906 5.44335938 3.43945312 C3.62688438 2.63082877 1.81316069 1.81602884 0 1 C0 0.67 0 0.34 0 0 Z " fill="#82D1CF" transform="translate(150,409)"/>
<path d="M0 0 C6.00555743 -0.45041681 10.71674387 1.35837193 16 4 C16 4.99 16 5.98 16 7 C12.05050296 6.37183502 8.80107972 5.1354471 5.1875 3.4375 C3.72376953 2.75494141 3.72376953 2.75494141 2.23046875 2.05859375 C1.49441406 1.70925781 0.75835937 1.35992187 0 1 C0 0.67 0 0.34 0 0 Z " fill="#56BBBD" transform="translate(113,393)"/>
<path d="M0 0 C0.33 0.66 0.66 1.32 1 2 C0.34 2 -0.32 2 -1 2 C-1.66 3.32 -2.32 4.64 -3 6 C-3.66 6 -4.32 6 -5 6 C-5.33 6.99 -5.66 7.98 -6 9 C-6.66 9 -7.32 9 -8 9 C-8.2475 9.61875 -8.495 10.2375 -8.75 10.875 C-10.22047178 13.37480203 -11.41403076 13.83316022 -14 15 C-7.25512528 3.10933941 -7.25512528 3.10933941 0 0 Z " fill="#84D3D1" transform="translate(209,311)"/>
<path d="M0 0 C0.268125 0.639375 0.53625 1.27875 0.8125 1.9375 C1.88667752 4.33131686 1.88667752 4.33131686 5 5 C5 5.66 5 6.32 5 7 C4.01 7.33 3.02 7.66 2 8 C1.938125 7.38125 1.87625 6.7625 1.8125 6.125 C1.16577152 3.77495599 1.16577152 3.77495599 -1.3125 2.625 C-4.48057874 1.8882375 -5.28337854 2.40749776 -8 4 C-8.66 3.67 -9.32 3.34 -10 3 C-10.33 3.66 -10.66 4.32 -11 5 C-11.66 4.34 -12.32 3.68 -13 3 C-8.37802694 0.78145293 -5.23175837 -0.38281159 0 0 Z " fill="#18A2A1" transform="translate(69,278)"/>
<path d="M0 0 C1.18414294 3.55242882 0.69535532 4.69830562 -0.4375 8.1875 C-0.72496094 9.08855469 -1.01242187 9.98960937 -1.30859375 10.91796875 C-1.53675781 11.60503906 -1.76492188 12.29210937 -2 13 C-2.66 13 -3.32 13 -4 13 C-4.0825 13.53625 -4.165 14.0725 -4.25 14.625 C-5.26376098 17.8352431 -7.07160549 20.26292392 -9 23 C-9 19.47230863 -7.75585047 17.4077968 -6.15234375 14.33203125 C-4.50612578 11.0005325 -3.17708548 7.56333553 -1.83203125 4.1015625 C-1 2 -1 2 0 0 Z " fill="#86D1D1" transform="translate(513,250)"/>
<path d="M0 0 C0.99 0.33 1.98 0.66 3 1 C0.30337379 2.23371868 -2.39515909 3.46277457 -5.09765625 4.68359375 C-6.7986252 5.45509649 -8.49587812 6.23507639 -10.18359375 7.03515625 C-14.67060811 9.1097973 -14.67060811 9.1097973 -18 8 C-17.34 8 -16.68 8 -16 8 C-16 7.01 -16 6.02 -16 5 C-14.68 5 -13.36 5 -12 5 C-12 4.34 -12 3.68 -12 3 C-11.30132812 2.86722656 -10.60265625 2.73445313 -9.8828125 2.59765625 C-8.51769531 2.33275391 -8.51769531 2.33275391 -7.125 2.0625 C-5.76761719 1.80146484 -5.76761719 1.80146484 -4.3828125 1.53515625 C-2.00043683 1.10036299 -2.00043683 1.10036299 0 0 Z " fill="#8DD5D4" transform="translate(432,400)"/>
<path d="M0 0 C0 0.33 0 0.66 0 1 C-1.16917969 1.19335938 -2.33835937 1.38671875 -3.54296875 1.5859375 C-5.09119532 1.84866686 -6.6393697 2.11170392 -8.1875 2.375 C-8.95642578 2.50132812 -9.72535156 2.62765625 -10.51757812 2.7578125 C-13.82351555 3.32535541 -16.74308078 3.89554989 -19.86328125 5.1640625 C-22 6 -22 6 -25 5 C-24 3 -24 3 -22.25 2.40234375 C-14.84401212 0.87228723 -7.58273154 -0.19442901 0 0 Z " fill="#C9E4E5" transform="translate(27,166)"/>
<path d="M0 0 C4.29 0 8.58 0 13 0 C11.32850504 3.34298992 8.39660753 3.81118736 5 5 C2.0625 4.6875 2.0625 4.6875 0 4 C0 2.68 0 1.36 0 0 Z " fill="#5EC3C3" transform="translate(434,395)"/>
<path d="M0 0 C1.2153691 3.64610731 0.65387751 4.63565227 -0.75 8.125 C-1.09546875 9.01445312 -1.4409375 9.90390625 -1.796875 10.8203125 C-3 13 -3 13 -6 14 C-5.67 10.04 -5.34 6.08 -5 2 C-3.35 2 -1.7 2 0 2 C0 1.34 0 0.68 0 0 Z " fill="#4FB8B5" transform="translate(478,342)"/>
<path d="M0 0 C1.16209423 3.48628269 0.88616059 3.86370218 -0.65234375 7.01171875 C-1.01650391 7.76904297 -1.38066406 8.52636719 -1.75585938 9.30664062 C-2.14580078 10.09232422 -2.53574219 10.87800781 -2.9375 11.6875 C-3.32357422 12.48478516 -3.70964844 13.28207031 -4.10742188 14.10351562 C-5.06290602 16.07346443 -6.02732106 18.03849939 -7 20 C-7.33 20 -7.66 20 -8 20 C-8.29162929 15.04230204 -8.12940055 11.97193147 -5 8 C-4.34 8 -3.68 8 -3 8 C-2.690625 7.05125 -2.38125 6.1025 -2.0625 5.125 C-1 2 -1 2 0 0 Z " fill="#8AD4D6" transform="translate(487,322)"/>
<path d="M0 0 C0.66 0.33 1.32 0.66 2 1 C-6.41070355 8.98376428 -6.41070355 8.98376428 -12 10 C-13.3434351 9.71004998 -14.68022783 9.38352354 -16 9 C-15.09636719 8.51789063 -14.19273437 8.03578125 -13.26171875 7.5390625 C-12.07026983 6.90112135 -10.87886594 6.2630961 -9.6875 5.625 C-9.09259766 5.30789063 -8.49769531 4.99078125 -7.88476562 4.6640625 C-5.16634112 3.20613651 -2.56932446 1.71288297 0 0 Z " fill="#94D9D9" transform="translate(482,294)"/>
<path d="M0 0 C0.99 0.33 1.98 0.66 3 1 C2.34 1 1.68 1 1 1 C1.33 2.32 1.66 3.64 2 5 C-3.625 9 -3.625 9 -7 9 C-6.75881648 5.74402242 -5.47775788 4.2723696 -3.125 2.1875 C-2.09375 1.465625 -1.0625 0.74375 0 0 Z " fill="#B2D6D7" transform="translate(219,144)"/>
<path d="M0 0 C4.81938524 -0.23509196 8.46298506 0.54815522 13 2 C13.33 3.32 13.66 4.64 14 6 C8.93001981 5.34580901 4.58009223 3.1453591 0 1 C0 0.67 0 0.34 0 0 Z " fill="#7BCDCB" transform="translate(136,403)"/>
<path d="M0 0 C0.92120952 2.51186943 1.10811662 3.68963537 0.21484375 6.25390625 C-2.51497879 11.18762222 -4.42954434 14.05681779 -10 16 C-8.58748708 11.50564071 -6.2884223 9.2884223 -3 6 C-1.20679176 2.83354526 -1.20679176 2.83354526 0 0 Z " fill="#4EB7B6" transform="translate(509,263)"/>
<path d="M0 0 C0 0.99 0 1.98 0 3 C-1.86328125 4.859375 -1.86328125 4.859375 -4.3125 6.75 C-5.11300781 7.38421875 -5.91351563 8.0184375 -6.73828125 8.671875 C-7.48464844 9.11015625 -8.23101562 9.5484375 -9 10 C-9.99 9.67 -10.98 9.34 -12 9 C-11.67 8.01 -11.34 7.02 -11 6 C-9.68 6 -8.36 6 -7 6 C-7 5.01 -7 4.02 -7 3 C-6.21625 2.87625 -5.4325 2.7525 -4.625 2.625 C-1.85942178 2.20882007 -1.85942178 2.20882007 0 0 Z " fill="#80D2D0" transform="translate(459,385)"/>
<path d="M0 0 C3.59634744 3.49359465 6.83451967 7.11098131 10 11 C9.67 11.66 9.34 12.32 9 13 C4.77336686 11.49048817 3.16921968 8.8148346 1 5 C0.25 2.125 0.25 2.125 0 0 Z " fill="#8BD5D5" transform="translate(361,275)"/>
<path d="M0 0 C3.23616246 4.85424369 5.09864057 10.23129963 6 16 C5.34 14.68 4.68 13.36 4 12 C3.01 12 2.02 12 1 12 C-0.26237731 9.47524538 -0.09856404 7.68799534 -0.0625 4.875 C-0.05347656 3.96492188 -0.04445312 3.05484375 -0.03515625 2.1171875 C-0.02355469 1.41851562 -0.01195312 0.71984375 0 0 Z " fill="#C5E2E1" transform="translate(56,253)"/>
<path d="M0 0 C0.66 1.32 1.32 2.64 2 4 C2.99 4 3.98 4 5 4 C5.33 4.99 5.66 5.98 6 7 C8.90092502 8.93395001 9.89674737 9.30131941 13.1875 9.625 C14.445625 9.74875 15.70375 9.8725 17 10 C17 10.33 17 10.66 17 11 C12.22996598 11.38160272 8.90534008 11.4609004 4.5625 9.25 C2.1859606 7.16328248 0.95834469 5.97086854 0 3 C0 2.01 0 1.02 0 0 Z " fill="#5EB9B8" transform="translate(372,408)"/>
<path d="M0 0 C0.99 0.33 1.98 0.66 3 1 C2.38125 1.0825 1.7625 1.165 1.125 1.25 C-1.69640174 2.24578885 -1.71927958 3.36322266 -3 6 C-5.625 8.25 -5.625 8.25 -8 10 C-8.33 9.34 -8.66 8.68 -9 8 C-8.67 7.34 -8.34 6.68 -8 6 C-7.34 6 -6.68 6 -6 6 C-5.67 5.01 -5.34 4.02 -5 3 C-4.01 3 -3.02 3 -2 3 C-2 2.34 -2 1.68 -2 1 C-1.34 0.67 -0.68 0.34 0 0 Z " fill="#969696" transform="translate(394,144)"/>
<path d="M0 0 C1.953125 0.6796875 1.953125 0.6796875 4 2 C4.609375 4.3828125 4.609375 4.3828125 4.75 7.125 C4.80671875 8.03507812 4.8634375 8.94515625 4.921875 9.8828125 C4.94765625 10.58148438 4.9734375 11.28015625 5 12 C2.43470546 10.71735273 2.33500137 9.77227651 1.375 7.125 C1.11460938 6.42632812 0.85421875 5.72765625 0.5859375 5.0078125 C0 3 0 3 0 0 Z " fill="#85D0D1" transform="translate(77,321)"/>
<path d="M0 0 C2.03833424 1.2739589 4.03852126 2.61061923 6 4 C6 4.66 6 5.32 6 6 C6.9590625 6.433125 6.9590625 6.433125 7.9375 6.875 C10 8 10 8 11 10 C10.38125 9.649375 9.7625 9.29875 9.125 8.9375 C8.42375 8.628125 7.7225 8.31875 7 8 C6.01 8.495 6.01 8.495 5 9 C1.58712264 7.29356132 1.15558675 3.46676025 0 0 Z " fill="#89D6D7" transform="translate(374,291)"/>
<path d="M0 0 C1.8125 0.125 1.8125 0.125 4 1 C5.75 4.0625 5.75 4.0625 7 7 C3 7 3 7 1.25 5.75 C0 4 0 4 0 0 Z " fill="#A9CFD1" transform="translate(0,262)"/>
<path d="M0 0 C0 0.99 0 1.98 0 3 C-0.66 3 -1.32 3 -2 3 C-2.2475 3.61875 -2.495 4.2375 -2.75 4.875 C-4.20628639 7.35068687 -5.37812506 7.95125002 -8 9 C-5.66153846 2.35384615 -5.66153846 2.35384615 -2.3125 0.5625 C-1.549375 0.376875 -0.78625 0.19125 0 0 Z " fill="#85D3D4" transform="translate(194,326)"/>
<path d="M0 0 C1.32 0.33 2.64 0.66 4 1 C4 1.66 4 2.32 4 3 C5.3921875 3.185625 5.3921875 3.185625 6.8125 3.375 C10 4 10 4 13 6 C9.37 5.67 5.74 5.34 2 5 C1.34 3.35 0.68 1.7 0 0 Z " fill="#83D3D3" transform="translate(385,301)"/>
<path d="M0 0 C0.66 0 1.32 0 2 0 C2.33 1.32 2.66 2.64 3 4 C1.68 4.33 0.36 4.66 -1 5 C-1 5.66 -1 6.32 -1 7 C-2.32 7.33 -3.64 7.66 -5 8 C-3.63055898 5.05043472 -2.12169591 2.47531189 0 0 Z " fill="#69C6C7" transform="translate(208,271)"/>
<path d="M0 0 C3 1 3 1 5 4 C5.1953125 7.35546875 5.1953125 7.35546875 5.125 11.1875 C5.10695313 12.45980469 5.08890625 13.73210937 5.0703125 15.04296875 C5.03550781 16.50669922 5.03550781 16.50669922 5 18 C4.67 18 4.34 18 4 18 C3.67 13.71 3.34 9.42 3 5 C2.34 5 1.68 5 1 5 C0.67 3.35 0.34 1.7 0 0 Z " fill="#BFDDDF" transform="translate(50,166)"/>
<path d="M0 0 C3 0 3 0 4.6875 1.625 C6.32162419 4.58198664 6.22692276 6.67179946 6 10 C5.67 9.01 5.34 8.02 5 7 C4.34 7 3.68 7 3 7 C2.67 6.34 2.34 5.68 2 5 C1.01 4.34 0.02 3.68 -1 3 C-0.34 3 0.32 3 1 3 C0.67 2.01 0.34 1.02 0 0 Z " fill="#ADD0D1" transform="translate(561,169)"/>
<path d="M0 0 C0.99 0.33 1.98 0.66 3 1 C-1.51253482 5.7632312 -1.51253482 5.7632312 -4.1875 7.0625 C-6.52860931 8.27341861 -7.04071126 9.60177814 -8 12 C-7.47557578 8.2241456 -6.67345333 5.77627845 -4 3 C-3.01 3 -2.02 3 -1 3 C-0.67 2.01 -0.34 1.02 0 0 Z " fill="#A4A4A4" transform="translate(75,153)"/>
<path d="M0 0 C1.32 0 2.64 0 4 0 C3.835 0.763125 3.67 1.52625 3.5 2.3125 C2.90854604 5.03596236 2.90854604 5.03596236 3 8 C1.35 6.02 -0.3 4.04 -2 2 C-1.34 1.34 -0.68 0.68 0 0 Z " fill="#129F9D" transform="translate(54,282)"/>
<path d="M0 0 C2 3 2 3 1.625 5.6875 C1.41875 6.450625 1.2125 7.21375 1 8 C0.34 8 -0.32 8 -1 8 C-1.66 9.32 -2.32 10.64 -3 12 C-4.125 8.25 -4.125 8.25 -3 6 C-2.01 6 -1.02 6 0 6 C0 4.02 0 2.04 0 0 Z " fill="#62C3BF" transform="translate(464,373)"/>
<path d="M0 0 C1.95216435 1.95216435 2.84826645 3.53199953 4 6 C4.33 6 4.66 6 5 6 C5 8.64 5 11.28 5 14 C2.96470413 11.96470413 2.3615728 10.76582618 1.375 8.125 C1.11460938 7.44695312 0.85421875 6.76890625 0.5859375 6.0703125 C0 4 0 4 0 0 Z " fill="#9ADFE0" transform="translate(92,359)"/>
<path d="M0 0 C1 4 1 4 1 6 C0.01 6 -0.98 6 -2 6 C-2.33 6.66 -2.66 7.32 -3 8 C-3.99 7.34 -4.98 6.68 -6 6 C-4.02 4.02 -2.04 2.04 0 0 Z " fill="#139F9E" transform="translate(493,286)"/>
<path d="M0 0 C2.9375 1.0625 2.9375 1.0625 6 3 C6.875 6.6875 6.875 6.6875 7 10 C4.4000702 7.48972295 2.00908773 5.0136316 0 2 C0 1.34 0 0.68 0 0 Z " fill="#8FD4D6" transform="translate(64,298)"/>
<path d="M0 0 C2.9375 1.1875 2.9375 1.1875 6 3 C6.875 5.6875 6.875 5.6875 7 8 C6.34 8 5.68 8 5 8 C4.67 7.34 4.34 6.68 4 6 C3.01 6 2.02 6 1 6 C0.67 4.02 0.34 2.04 0 0 Z " fill="#4FB4B4" transform="translate(368,286)"/>
<path d="M0 0 C0.598125 0.309375 1.19625 0.61875 1.8125 0.9375 C4.08956772 2.10209704 4.08956772 2.10209704 7 3 C8.1875 5.5625 8.1875 5.5625 9 8 C5.56247993 6.4722133 2.81046312 4.49818944 0 2 C0 1.34 0 0.68 0 0 Z " fill="#97DBDA" transform="translate(104,385)"/>
<path d="M0 0 C2.5 1.8125 2.5 1.8125 5 4 C5 4.99 5 5.98 5 7 C5.99 7.33 6.98 7.66 8 8 C6.02 8.99 6.02 8.99 4 10 C3.566875 8.63875 3.566875 8.63875 3.125 7.25 C2.23468224 4.67797092 1.28505587 2.38653234 0 0 Z " fill="#52BCBC" transform="translate(74,285)"/>
<path d="M0 0 C2 2 2 2 2.125 5.125 C2.08375 6.07375 2.0425 7.0225 2 8 C1.01 8.33 0.02 8.66 -1 9 C-1.33 9.66 -1.66 10.32 -2 11 C-1.67 9.35 -1.34 7.7 -1 6 C-0.34 6 0.32 6 1 6 C0.34 4.35 -0.32 2.7 -1 1 C-0.67 0.67 -0.34 0.34 0 0 Z " fill="#12A19F" transform="translate(189,403)"/>
<path d="M0 0 C0.99 0 1.98 0 3 0 C1.50163895 3.11198065 -0.19933758 6.0534615 -2 9 C-3.33332095 6.3333581 -2.67102033 4.83319697 -2 2 C-1.34 2 -0.68 2 0 2 C0 1.34 0 0.68 0 0 Z " fill="#84CCCC" transform="translate(497,302)"/>
<path d="M0 0 C1.46067199 0.45082469 2.91848032 0.91093537 4.375 1.375 C5.18710938 1.63023437 5.99921875 1.88546875 6.8359375 2.1484375 C9 3 9 3 11 5 C9.3733152 4.71788123 7.74867104 4.42397625 6.125 4.125 C4.76761719 3.88136719 4.76761719 3.88136719 3.3828125 3.6328125 C1 3 1 3 -1 1 C-0.67 0.67 -0.34 0.34 0 0 Z " fill="#7DCECF" transform="translate(91,299)"/>
<path d="M0 0 C0.99 0.33 1.98 0.66 3 1 C1.02 3.31 -0.96 5.62 -3 8 C-3.66 7.67 -4.32 7.34 -5 7 C-5 6.01 -5 5.02 -5 4 C-4.01 4 -3.02 4 -2 4 C-1.34 2.68 -0.68 1.36 0 0 Z " fill="#7CCECD" transform="translate(222,296)"/>
<path d="M0 0 C0.99 0.33 1.98 0.66 3 1 C3.33 2.98 3.66 4.96 4 7 C3.01 7.495 3.01 7.495 2 8 C0.23537317 4.91190305 0 3.76687864 0 0 Z " fill="#68C2C1" transform="translate(74,313)"/>
<path d="M0 0 C1.65 0 3.3 0 5 0 C4.67 0.99 4.34 1.98 4 3 C3.34 3 2.68 3 2 3 C1.67 3.99 1.34 4.98 1 6 C0.34 5.67 -0.32 5.34 -1 5 C-0.67 3.35 -0.34 1.7 0 0 Z " fill="#7FCFD1" transform="translate(211,305)"/>
<path d="M0 0 C0.99 0 1.98 0 3 0 C2.38722388 2.96175123 1.74627478 4.38058783 0 7 C-0.66 7 -1.32 7 -2 7 C-2 5.68 -2 4.36 -2 3 C-1.34 3 -0.68 3 0 3 C0 2.01 0 1.02 0 0 Z " fill="#63C1C1" transform="translate(503,294)"/>
<path d="M0 0 C0.33 0.99 0.66 1.98 1 3 C-0.4375 5.1875 -0.4375 5.1875 -2 7 C-2 6.01 -2 5.02 -2 4 C-2.99 4.33 -3.98 4.66 -5 5 C-5 4.01 -5 3.02 -5 2 C-3.35 2 -1.7 2 0 2 C0 1.34 0 0.68 0 0 Z " fill="#5DC6C8" transform="translate(478,342)"/>
<path d="M0 0 C-1.15173355 2.46800047 -2.04783565 4.04783565 -4 6 C-4.99 6 -5.98 6 -7 6 C-5.52522876 2.59668175 -4.14385429 0 0 0 Z " fill="#18A1A0" transform="translate(486,294)"/>
<path d="M0 0 C-1.375 1.5 -1.375 1.5 -3 3 C-3.66 3 -4.32 3 -5 3 C-5 3.66 -5 4.32 -5 5 C-5.66 4.67 -6.32 4.34 -7 4 C-6.6875 2.0625 -6.6875 2.0625 -6 0 C-3 -1 -3 -1 0 0 Z " fill="#6DC8CB" transform="translate(527,277)"/>
<path d="M0 0 C2.8125 -0.25 2.8125 -0.25 6 0 C7.875 2 7.875 2 9 4 C5.65626525 3.44271087 2.96687001 2.64826111 0 1 C0 0.67 0 0.34 0 0 Z " fill="#A0DBDC" transform="translate(113,393)"/>
<path d="M0 0 C2.9375 1.25 2.9375 1.25 6 3 C6.69140625 5.109375 6.69140625 5.109375 7 7 C5.82780457 6.21654285 4.66236332 5.42297164 3.5 4.625 C2.8503125 4.18414062 2.200625 3.74328125 1.53125 3.2890625 C1.0259375 2.86367188 0.520625 2.43828125 0 2 C0 1.34 0 0.68 0 0 Z " fill="#52B8B7" transform="translate(101,381)"/>
<path d="M0 0 C1.485 0.99 1.485 0.99 3 2 C3 2.66 3 3.32 3 4 C3.99 4.33 4.98 4.66 6 5 C6 5.66 6 6.32 6 7 C5.01 7.33 4.02 7.66 3 8 C0 2.25 0 2.25 0 0 Z " fill="#96DBDB" transform="translate(68,278)"/>
</svg>
